<?xml version="1.0" encoding="utf-8"?>
<!-- Generator: Adobe Illustrator 21.0.0, SVG Export Plug-In . SVG Version: 6.00 Build 0)  -->
<svg version="1.1" id="Capa_1" xmlns="http://www.w3.org/2000/svg" xmlns:xlink="http://www.w3.org/1999/xlink" x="0px" y="0px"
	 viewBox="0 0 172.1 99.2" style="enable-background:new 0 0 172.1 99.2;" xml:space="preserve">
<style type="text/css">
	.Arqueado:_x0020_verde{fill:url(#SVGID_1_);stroke:#FFFFFF;stroke-width:0.25;stroke-miterlimit:1;}
	.st0{fill:#3D7DDA;}
	.st1{fill:#FFD900;enable-background:new    ;}
	.st2{fill:#FFFFFF;}
	.st3{fill:#D5DCF6;}
</style>
<linearGradient id="SVGID_1_" gradientUnits="userSpaceOnUse" x1="-316.0776" y1="656.7471" x2="-315.3705" y2="656.04">
	<stop  offset="0" style="stop-color:#1EAB4B"/>
	<stop  offset="0.9831" style="stop-color:#19361A"/>
</linearGradient>
<g>
	<g>
		<path class="st0" d="M82.7,37.9c0-1.7,0-2,0-2.3c0-0.4-0.1-0.5-0.5-0.6c-0.1,0-0.3,0-0.4,0c-0.1,0-0.2,0-0.2-0.1
			c0-0.1,0.1-0.1,0.2-0.1c0.6,0,1.3,0,1.6,0c0.4,0,1.1,0,1.6,0c1.4,0,1.9,0.5,2,0.6c0.2,0.2,0.5,0.7,0.5,1.3c0,1.6-1.1,2.6-2.7,2.6
			c-0.1,0-0.2,0-0.2,0c-0.1,0-0.1,0-0.1-0.1c0-0.1,0.1-0.1,0.3-0.1c0.6,0,1.5-0.7,1.5-1.8c0-0.4,0-1.1-0.6-1.6
			c-0.4-0.4-0.8-0.4-1.1-0.4c-0.2,0-0.3,0-0.4,0c-0.1,0-0.1,0.1-0.1,0.2v4.4c0,1,0,1.9,0.1,2.3c0,0.3,0.1,0.5,0.4,0.6
			c0.2,0,0.4,0,0.6,0c0.1,0,0.2,0,0.2,0.1c0,0.1-0.1,0.1-0.2,0.1c-0.7,0-1.4,0-1.7,0c-0.3,0-0.9,0-1.4,0c-0.1,0-0.2,0-0.2-0.1
			c0-0.1,0-0.1,0.2-0.1c0.2,0,0.3,0,0.4,0c0.2,0,0.3-0.3,0.3-0.6c0.1-0.5,0.1-1.3,0.1-2.3V37.9z"/>
		<path class="st0" d="M88.9,38.9c0-1.9,1.2-4.3,4.5-4.3c2.7,0,4.4,1.6,4.4,4.1c0,2.5-1.8,4.5-4.5,4.5
			C90.1,43.2,88.9,40.8,88.9,38.9z M96.3,39.1c0-2.5-1.4-4-3.2-4c-1.3,0-2.7,0.7-2.7,3.4c0,2.3,1.3,4.1,3.4,4.1
			C94.5,42.6,96.3,42.3,96.3,39.1z"/>
		<path class="st0" d="M100.9,41.5c0,0.9,0.2,1.1,0.4,1.2c0.2,0.1,0.4,0.1,0.6,0.1c0.1,0,0.2,0,0.2,0.1c0,0.1-0.1,0.1-0.3,0.1
			c-0.7,0-1.1,0-1.4,0c-0.1,0-0.6,0-1.2,0c-0.1,0-0.2,0-0.2-0.1c0-0.1,0.1-0.1,0.2-0.1c0.1,0,0.3,0,0.5-0.1c0.3-0.1,0.3-0.4,0.3-1.4
			l0.1-6.5c0-0.2,0-0.4,0.1-0.4c0.1,0,0.2,0.1,0.4,0.3c0.1,0.1,1.8,1.9,3.4,3.5c0.7,0.7,2.2,2.3,2.4,2.5h0.1l-0.1-4.9
			c0-0.7-0.1-0.9-0.4-1c-0.2-0.1-0.4-0.1-0.6-0.1c-0.1,0-0.2,0-0.2-0.1c0-0.1,0.1-0.1,0.3-0.1c0.6,0,1.1,0,1.3,0c0.1,0,0.5,0,1.1,0
			c0.1,0,0.3,0,0.3,0.1c0,0.1-0.1,0.1-0.2,0.1c-0.1,0-0.2,0-0.3,0c-0.3,0.1-0.4,0.3-0.4,0.9l-0.1,6.9c0,0.2,0,0.3-0.1,0.3
			c-0.1,0-0.3-0.1-0.4-0.2c-0.7-0.7-2.1-2.1-3.2-3.2c-1.2-1.2-2.4-2.5-2.6-2.8h0L100.9,41.5z"/>
		<path class="st0" d="M112.5,35.4l-1.6,0c-0.6,0-0.9,0.1-1.1,0.3c-0.1,0.2-0.2,0.3-0.2,0.4c0,0.1-0.1,0.1-0.1,0.1
			c-0.1,0-0.1-0.1-0.1-0.2c0-0.2,0.2-1.2,0.2-1.3c0-0.1,0.1-0.2,0.1-0.2c0.1,0,0.2,0.1,0.5,0.1c0.3,0,0.7,0.1,1.1,0.1h4.3
			c0.7,0,1-0.1,1.1-0.1c0.1,0,0.1,0.1,0.1,0.2c0,0.2,0,1,0,1.3c0,0.1,0,0.2-0.1,0.2c-0.1,0-0.1-0.1-0.1-0.2l0-0.1
			c0-0.3-0.3-0.6-1.3-0.6l-1.4,0v4.5c0,1,0,1.9,0.1,2.3c0,0.3,0.1,0.5,0.4,0.6c0.2,0,0.4,0,0.6,0c0.1,0,0.2,0,0.2,0.1
			c0,0.1-0.1,0.1-0.2,0.1c-0.7,0-1.4,0-1.7,0c-0.3,0-0.9,0-1.4,0c-0.1,0-0.2,0-0.2-0.1c0-0.1,0-0.1,0.2-0.1c0.2,0,0.3,0,0.4,0
			c0.2,0,0.3-0.3,0.3-0.6c0.1-0.5,0.1-1.3,0.1-2.3V35.4z"/>
		<path class="st0" d="M119.2,37.9c0-1.7,0-2,0-2.3c0-0.4-0.1-0.6-0.4-0.6c-0.1,0-0.3,0-0.4,0c-0.1,0-0.2,0-0.2-0.1
			c0-0.1,0.1-0.1,0.3-0.1c0.4,0,1.1,0,1.4,0c0.3,0,0.9,0,1.3,0c0.1,0,0.2,0,0.2,0.1c0,0.1-0.1,0.1-0.2,0.1c-0.1,0-0.2,0-0.3,0
			c-0.3,0.1-0.4,0.2-0.4,0.6c0,0.3,0,0.7,0,2.3v1.9c0,1.1,0,1.9,0,2.4c0,0.3,0.1,0.5,0.4,0.5c0.2,0,0.4,0,0.6,0c0.1,0,0.2,0,0.2,0.1
			c0,0.1-0.1,0.1-0.2,0.1c-0.7,0-1.4,0-1.7,0c-0.3,0-0.9,0-1.4,0c-0.1,0-0.2,0-0.2-0.1c0-0.1,0-0.1,0.2-0.1c0.2,0,0.3,0,0.4,0
			c0.2,0,0.3-0.2,0.3-0.5c0.1-0.5,0.1-1.3,0.1-2.4V37.9z"/>
		<path class="st0" d="M125.7,39.9c0,1,0,1.9,0.1,2.3c0,0.3,0.1,0.6,0.4,0.6c0.2,0,0.4,0,0.5,0c0.1,0,0.2,0,0.2,0.1
			c0,0.1-0.1,0.1-0.2,0.1c-0.7,0-1.4,0-1.7,0c-0.3,0-1,0-1.4,0c-0.2,0-0.2,0-0.2-0.1c0-0.1,0-0.1,0.2-0.1c0.2,0,0.3,0,0.4,0
			c0.2,0,0.3-0.3,0.3-0.6c0.1-0.5,0.1-1.3,0.1-2.3v-1.9c0-1.7,0-2,0-2.3c0-0.4-0.1-0.5-0.5-0.6c-0.1,0-0.3,0-0.4,0
			c-0.1,0-0.2,0-0.2-0.1c0-0.1,0.1-0.1,0.3-0.1c0.6,0,1.3,0,1.6,0c0.4,0,2.6,0,2.9,0c0.2,0,0.3,0,0.4,0c0.1,0,0.1-0.1,0.2-0.1
			c0,0,0.1,0,0.1,0.1c0,0.1-0.1,0.2-0.1,0.5c0,0.1,0,0.8-0.1,0.9c0,0.1,0,0.2-0.1,0.2c-0.1,0-0.1-0.1-0.1-0.2c0-0.1,0-0.3-0.1-0.4
			c-0.1-0.2-0.3-0.3-0.7-0.3l-1.7,0c-0.1,0-0.1,0-0.1,0.2v2.7c0,0.1,0,0.1,0.1,0.1l1.4,0c0.2,0,0.3,0,0.5,0c0.2,0,0.4-0.1,0.5-0.2
			c0.1-0.1,0.1-0.1,0.1-0.1c0,0,0.1,0,0.1,0.1c0,0.1-0.1,0.3-0.1,0.7c0,0.2,0,0.7,0,0.8c0,0.1,0,0.2-0.1,0.2c-0.1,0-0.1-0.1-0.1-0.2
			c0-0.1,0-0.2-0.1-0.3c-0.1-0.2-0.2-0.3-0.6-0.4c-0.3,0-1.4,0-1.6,0c-0.1,0-0.1,0-0.1,0.1V39.9z"/>
		<path class="st0" d="M131.3,37.9c0-1.7,0-2,0-2.3c0-0.4-0.1-0.6-0.4-0.6c-0.1,0-0.3,0-0.4,0c-0.1,0-0.2,0-0.2-0.1
			c0-0.1,0.1-0.1,0.3-0.1c0.4,0,1.1,0,1.4,0c0.3,0,0.9,0,1.3,0c0.1,0,0.2,0,0.2,0.1c0,0.1-0.1,0.1-0.2,0.1s-0.2,0-0.3,0
			c-0.3,0.1-0.4,0.2-0.4,0.6c0,0.3,0,0.7,0,2.3v1.9c0,1.1,0,1.9,0,2.4c0,0.3,0.1,0.5,0.4,0.5c0.2,0,0.4,0,0.6,0c0.1,0,0.2,0,0.2,0.1
			c0,0.1-0.1,0.1-0.2,0.1c-0.7,0-1.4,0-1.7,0c-0.3,0-0.9,0-1.4,0c-0.1,0-0.2,0-0.2-0.1c0-0.1,0-0.1,0.2-0.1c0.2,0,0.3,0,0.4,0
			c0.2,0,0.3-0.2,0.3-0.5c0.1-0.5,0.1-1.3,0.1-2.4V37.9z"/>
		<path class="st0" d="M136.3,42c-1.1-0.9-1.4-2.2-1.4-3.2c0-0.7,0.2-2,1.3-3c0.8-0.7,1.8-1.2,3.5-1.2c0.7,0,1.1,0,1.6,0.1
			c0.4,0.1,0.8,0.2,1.1,0.2c0.1,0,0.2,0.1,0.2,0.1c0,0.1,0,0.2-0.1,0.6c0,0.4,0,1,0,1.2c0,0.2,0,0.3-0.1,0.3c-0.1,0-0.1-0.1-0.1-0.2
			c0-0.3-0.2-0.7-0.4-1c-0.4-0.4-1.2-0.7-2.2-0.7c-1,0-1.6,0.2-2.1,0.7c-0.8,0.7-1,1.8-1,2.8c0,2.6,2,3.9,3.4,3.9c1,0,1.6-0.1,2-0.6
			c0.2-0.2,0.3-0.5,0.4-0.7c0-0.2,0.1-0.2,0.1-0.2c0.1,0,0.1,0.1,0.1,0.2c0,0.1-0.1,1.1-0.2,1.5c-0.1,0.2-0.1,0.2-0.3,0.3
			c-0.4,0.2-1.3,0.3-2,0.3C138.6,43.2,137.3,42.8,136.3,42z"/>
		<path class="st0" d="M145.1,37.9c0-1.7,0-2,0-2.3c0-0.4-0.1-0.6-0.4-0.6c-0.1,0-0.3,0-0.4,0c-0.1,0-0.2,0-0.2-0.1
			c0-0.1,0.1-0.1,0.3-0.1c0.4,0,1.1,0,1.4,0c0.3,0,0.9,0,1.3,0c0.1,0,0.2,0,0.2,0.1c0,0.1-0.1,0.1-0.2,0.1c-0.1,0-0.2,0-0.3,0
			c-0.3,0.1-0.4,0.2-0.4,0.6c0,0.3,0,0.7,0,2.3v1.9c0,1.1,0,1.9,0,2.4c0,0.3,0.1,0.5,0.4,0.5c0.2,0,0.4,0,0.6,0c0.1,0,0.2,0,0.2,0.1
			c0,0.1-0.1,0.1-0.2,0.1c-0.7,0-1.4,0-1.7,0c-0.3,0-0.9,0-1.4,0c-0.1,0-0.2,0-0.2-0.1c0-0.1,0-0.1,0.2-0.1c0.2,0,0.3,0,0.4,0
			c0.2,0,0.3-0.2,0.3-0.5c0.1-0.5,0.1-1.3,0.1-2.4V37.9z"/>
		<path class="st0" d="M151.5,40.2C151.4,40.2,151.4,40.2,151.5,40.2l-0.7,1.7c-0.1,0.3-0.2,0.5-0.2,0.7c0,0.2,0.1,0.3,0.4,0.3h0.2
			c0.1,0,0.2,0,0.2,0.1c0,0.1-0.1,0.1-0.2,0.1c-0.4,0-0.8,0-1.2,0c-0.1,0-0.7,0-1.3,0c-0.1,0-0.2,0-0.2-0.1c0-0.1,0-0.1,0.1-0.1
			c0.1,0,0.3,0,0.3,0c0.5-0.1,0.7-0.4,0.9-1l2.7-6.9c0.1-0.3,0.2-0.4,0.3-0.4c0.1,0,0.2,0.1,0.3,0.3c0.3,0.6,2,5.1,2.7,6.7
			c0.4,1,0.7,1.1,1,1.2c0.2,0,0.3,0,0.5,0c0.1,0,0.1,0,0.1,0.1c0,0.1-0.1,0.1-0.5,0.1c-0.4,0-1.2,0-2.1,0c-0.2,0-0.3,0-0.3-0.1
			c0-0.1,0-0.1,0.2-0.1c0.1,0,0.2-0.1,0.1-0.3l-0.9-2.3c0-0.1-0.1-0.1-0.1-0.1H151.5z M153.7,39.6C153.8,39.6,153.8,39.6,153.7,39.6
			l-0.9-2.8c0,0,0-0.1-0.1-0.1s-0.1,0.1-0.1,0.1l-1,2.7c0,0,0,0.1,0,0.1H153.7z"/>
		<path class="st0" d="M82.2,53.7c0-1.7,0-2,0-2.3c0-0.4-0.1-0.5-0.5-0.6c-0.1,0-0.3,0-0.4,0c-0.1,0-0.2,0-0.2-0.1
			c0-0.1,0.1-0.1,0.2-0.1c0.6,0,1.3,0,1.6,0c0.3,0,1,0,1.3,0c0.2,0,0.2,0,0.2,0.1c0,0.1-0.1,0.1-0.2,0.1c-0.1,0-0.2,0-0.3,0
			c-0.3,0.1-0.4,0.2-0.4,0.6c0,0.3,0,0.7,0,2.3v1.5c0,1.6,0.3,2.3,0.9,2.7c0.5,0.4,1,0.4,1.4,0.4c0.5,0,1.1-0.2,1.5-0.6
			c0.6-0.6,0.6-1.6,0.6-2.7v-1.4c0-1.7,0-2,0-2.3c0-0.4-0.1-0.5-0.5-0.6c-0.1,0-0.3,0-0.4,0c-0.1,0-0.2,0-0.2-0.1
			c0-0.1,0.1-0.1,0.2-0.1c0.6,0,1.2,0,1.3,0c0.1,0,0.8,0,1.2,0c0.2,0,0.2,0,0.2,0.1c0,0.1-0.1,0.1-0.2,0.1c-0.1,0-0.2,0-0.3,0
			c-0.3,0.1-0.4,0.2-0.4,0.6c0,0.3,0,0.7,0,2.3v1.2c0,1.2-0.1,2.5-1,3.3c-0.8,0.7-1.6,0.8-2.3,0.8c-0.6,0-1.6,0-2.4-0.8
			c-0.6-0.5-1-1.3-1-2.9V53.7z"/>
		<path class="st0" d="M92.5,57.3c0,0.9,0.2,1.1,0.4,1.2c0.2,0.1,0.4,0.1,0.6,0.1c0.1,0,0.2,0,0.2,0.1c0,0.1-0.1,0.1-0.3,0.1
			c-0.7,0-1.1,0-1.4,0c-0.1,0-0.6,0-1.2,0c-0.1,0-0.2,0-0.2-0.1c0-0.1,0.1-0.1,0.2-0.1c0.1,0,0.3,0,0.5-0.1c0.3-0.1,0.3-0.4,0.3-1.4
			l0.1-6.5c0-0.2,0-0.4,0.1-0.4c0.1,0,0.2,0.1,0.4,0.3c0.1,0.1,1.8,1.9,3.4,3.5c0.7,0.7,2.2,2.3,2.4,2.5h0.1L98,51.8
			c0-0.7-0.1-0.9-0.4-1c-0.2-0.1-0.4-0.1-0.6-0.1c-0.1,0-0.2,0-0.2-0.1c0-0.1,0.1-0.1,0.3-0.1c0.6,0,1.1,0,1.3,0c0.1,0,0.5,0,1.1,0
			c0.1,0,0.3,0,0.3,0.1c0,0.1-0.1,0.1-0.2,0.1c-0.1,0-0.2,0-0.3,0c-0.3,0.1-0.4,0.3-0.4,0.9l-0.1,6.9c0,0.2,0,0.3-0.1,0.3
			c-0.1,0-0.3-0.1-0.4-0.2c-0.7-0.7-2.1-2.1-3.2-3.2c-1.2-1.2-2.4-2.5-2.6-2.8h0L92.5,57.3z"/>
		<path class="st0" d="M102.5,53.7c0-1.7,0-2,0-2.3c0-0.4-0.1-0.6-0.4-0.6c-0.1,0-0.3,0-0.4,0c-0.1,0-0.2,0-0.2-0.1
			c0-0.1,0.1-0.1,0.3-0.1c0.4,0,1.1,0,1.4,0c0.3,0,0.9,0,1.3,0c0.1,0,0.2,0,0.2,0.1c0,0.1-0.1,0.1-0.2,0.1c-0.1,0-0.2,0-0.3,0
			c-0.3,0.1-0.4,0.2-0.4,0.6c0,0.3,0,0.7,0,2.3v1.9c0,1.1,0,1.9,0,2.4c0,0.3,0.1,0.5,0.4,0.5c0.2,0,0.4,0,0.6,0c0.1,0,0.2,0,0.2,0.1
			c0,0.1-0.1,0.1-0.2,0.1c-0.7,0-1.4,0-1.7,0c-0.3,0-0.9,0-1.4,0c-0.1,0-0.2,0-0.2-0.1c0-0.1,0-0.1,0.2-0.1c0.2,0,0.3,0,0.4,0
			c0.2,0,0.3-0.2,0.3-0.5c0.1-0.5,0.1-1.3,0.1-2.4V53.7z"/>
		<path class="st0" d="M107.2,51.6c-0.3-0.6-0.4-0.7-0.8-0.8c-0.2,0-0.3,0-0.4,0c-0.1,0-0.1,0-0.1-0.1c0-0.1,0.1-0.1,0.3-0.1
			c0.6,0,1.2,0,1.6,0c0.3,0,0.8,0,1.3,0c0.1,0,0.3,0,0.3,0.1c0,0.1-0.1,0.1-0.2,0.1c-0.2,0-0.3,0-0.4,0.1c-0.1,0.1-0.1,0.1-0.1,0.2
			c0,0.1,0.1,0.4,0.3,0.8l1.9,5h0c0.5-1.2,1.9-4.7,2.2-5.4c0.1-0.1,0.1-0.3,0.1-0.4c0-0.1,0-0.2-0.1-0.2c-0.1,0-0.3-0.1-0.4-0.1
			c-0.1,0-0.2,0-0.2-0.1c0-0.1,0.1-0.1,0.3-0.1c0.5,0,1,0,1.1,0c0.2,0,0.7,0,1,0c0.1,0,0.2,0,0.2,0.1c0,0.1-0.1,0.1-0.2,0.1
			c-0.1,0-0.3,0-0.5,0.1c-0.1,0.1-0.3,0.3-0.6,1c-0.4,1-0.7,1.6-1.3,3c-0.7,1.6-1.2,2.8-1.5,3.3c-0.3,0.6-0.4,0.8-0.5,0.8
			c-0.1,0-0.2-0.2-0.4-0.7L107.2,51.6z"/>
		<path class="st0" d="M117,53.7c0-1.7,0-2,0-2.3c0-0.4-0.1-0.5-0.5-0.6c-0.1,0-0.3,0-0.4,0c-0.1,0-0.2,0-0.2-0.1
			c0-0.1,0.1-0.1,0.2-0.1c0.6,0,1.3,0,1.6,0c0.3,0,2.5,0,2.7,0c0.2,0,0.4,0,0.5-0.1c0.1,0,0.1,0,0.2,0c0.1,0,0.1,0,0.1,0.1
			c0,0.1-0.1,0.2-0.1,0.7c0,0.1,0,0.6-0.1,0.7c0,0.1,0,0.1-0.1,0.1c-0.1,0-0.1-0.1-0.1-0.2c0-0.1,0-0.3-0.1-0.4
			c-0.1-0.2-0.2-0.3-0.7-0.4c-0.2,0-1.3,0-1.6,0c-0.1,0-0.1,0-0.1,0.1V54c0,0.1,0,0.1,0.1,0.1c0.2,0,1.5,0,1.8,0
			c0.3,0,0.4-0.1,0.5-0.2c0.1-0.1,0.1-0.1,0.2-0.1c0,0,0.1,0,0.1,0.1c0,0.1-0.1,0.2-0.1,0.8c0,0.2,0,0.7,0,0.7c0,0.1,0,0.2-0.1,0.2
			c-0.1,0-0.1,0-0.1-0.1c0-0.1,0-0.3,0-0.4c-0.1-0.2-0.2-0.4-0.6-0.4c-0.2,0-1.3,0-1.6,0c-0.1,0-0.1,0-0.1,0.1v0.9
			c0,0.4,0,1.4,0,1.7c0,0.8,0.2,0.9,1.3,0.9c0.3,0,0.7,0,1-0.1c0.3-0.1,0.4-0.4,0.5-0.8c0-0.1,0-0.2,0.1-0.2c0.1,0,0.1,0.1,0.1,0.2
			c0,0.3-0.1,1-0.1,1.2c-0.1,0.3-0.2,0.3-0.6,0.3c-1.7,0-2.4-0.1-3-0.1c-0.3,0-0.9,0-1.4,0c-0.1,0-0.2,0-0.2-0.1
			c0-0.1,0-0.1,0.2-0.1c0.2,0,0.3,0,0.4,0c0.2,0,0.3-0.3,0.3-0.6c0.1-0.5,0.1-1.3,0.1-2.3V53.7z"/>
		<path class="st0" d="M124,53.7c0-1.7,0-2,0-2.3c0-0.4-0.1-0.5-0.5-0.6c-0.1,0-0.3,0-0.4,0c-0.1,0-0.2,0-0.2-0.1
			c0-0.1,0.1-0.1,0.2-0.1c0.6,0,1.3,0,1.5,0c0.4,0,1.2,0,1.5,0c0.7,0,1.4,0.1,2,0.5c0.3,0.2,0.7,0.8,0.7,1.5c0,0.8-0.3,1.6-1.4,2.5
			c1,1.2,1.7,2.2,2.4,2.9c0.6,0.6,1.1,0.7,1.2,0.7c0.1,0,0.2,0,0.3,0c0.1,0,0.1,0,0.1,0.1c0,0.1-0.1,0.1-0.2,0.1h-1
			c-0.6,0-0.9-0.1-1.2-0.2c-0.5-0.3-0.9-0.8-1.5-1.6c-0.4-0.6-0.9-1.3-1.1-1.5c-0.1-0.1-0.1-0.1-0.2-0.1l-1,0c-0.1,0-0.1,0-0.1,0.1
			v0.2c0,1,0,1.9,0.1,2.3c0,0.3,0.1,0.6,0.4,0.6c0.2,0,0.4,0,0.5,0c0.1,0,0.1,0,0.1,0.1c0,0.1-0.1,0.1-0.2,0.1c-0.6,0-1.4,0-1.6,0
			c-0.2,0-0.9,0-1.3,0c-0.1,0-0.2,0-0.2-0.1c0-0.1,0-0.1,0.2-0.1c0.2,0,0.3,0,0.4,0c0.2,0,0.3-0.3,0.3-0.6c0.1-0.5,0.1-1.3,0.1-2.3
			V53.7z M125.3,54.5c0,0.1,0,0.2,0.1,0.2c0.2,0.1,0.6,0.1,0.8,0.1c0.4,0,0.6,0,0.8-0.2c0.3-0.2,0.6-0.7,0.6-1.6c0-1.6-1-2-1.7-2
			c-0.3,0-0.5,0-0.6,0c-0.1,0-0.1,0.1-0.1,0.2V54.5z"/>
		<path class="st0" d="M132.6,58.6c-0.2-0.1-0.2-0.1-0.2-0.4c0-0.6,0-1.3,0.1-1.4c0-0.2,0-0.3,0.1-0.3c0.1,0,0.1,0.1,0.1,0.2
			c0,0.1,0,0.4,0.1,0.6c0.2,0.8,0.9,1.1,1.6,1.1c1,0,1.5-0.7,1.5-1.2c0-0.5-0.2-1.1-1.1-1.8l-0.5-0.4c-1.2-0.9-1.6-1.7-1.6-2.6
			c0-1.2,1-2.1,2.5-2.1c0.7,0,1.2,0.1,1.5,0.2c0.1,0,0.2,0.1,0.2,0.1c0,0.1,0,0.5,0,1.3c0,0.2,0,0.3-0.1,0.3c-0.1,0-0.1-0.1-0.1-0.2
			c0-0.1-0.1-0.4-0.3-0.7c-0.2-0.2-0.5-0.5-1.2-0.5c-0.8,0-1.3,0.5-1.3,1.1c0,0.5,0.3,0.9,1.2,1.6l0.3,0.2c1.3,1,1.8,1.8,1.8,2.8
			c0,0.6-0.2,1.4-1,1.9c-0.5,0.4-1.2,0.4-1.7,0.4C133.6,58.9,133.1,58.9,132.6,58.6z"/>
		<path class="st0" d="M139.6,53.7c0-1.7,0-2,0-2.3c0-0.4-0.1-0.6-0.4-0.6c-0.1,0-0.3,0-0.4,0c-0.1,0-0.2,0-0.2-0.1
			c0-0.1,0.1-0.1,0.3-0.1c0.4,0,1.1,0,1.4,0c0.3,0,0.9,0,1.3,0c0.1,0,0.2,0,0.2,0.1c0,0.1-0.1,0.1-0.2,0.1s-0.2,0-0.3,0
			c-0.3,0.1-0.4,0.2-0.4,0.6c0,0.3,0,0.7,0,2.3v1.9c0,1.1,0,1.9,0,2.4c0,0.3,0.1,0.5,0.4,0.5c0.2,0,0.4,0,0.6,0c0.1,0,0.2,0,0.2,0.1
			c0,0.1-0.1,0.1-0.2,0.1c-0.7,0-1.4,0-1.7,0c-0.3,0-0.9,0-1.4,0c-0.1,0-0.2,0-0.2-0.1c0-0.1,0-0.1,0.2-0.1c0.2,0,0.3,0,0.4,0
			c0.2,0,0.3-0.2,0.3-0.5c0.1-0.5,0.1-1.3,0.1-2.4V53.7z"/>
		<path class="st0" d="M144.7,53.7c0-1.7,0-2,0-2.3c0-0.4-0.1-0.5-0.5-0.6c-0.1,0-0.3,0-0.4,0c-0.1,0-0.2,0-0.2-0.1
			c0-0.1,0.1-0.1,0.2-0.1c0.6,0,1.3,0,1.6,0c0.3,0,1,0,1.7,0c1.4,0,3.2,0,4.4,1.2c0.5,0.6,1.1,1.5,1.1,2.8c0,1.4-0.6,2.4-1.2,3.1
			c-0.5,0.5-1.6,1.3-3.7,1.3c-0.8,0-1.8-0.1-2.3-0.1c-0.3,0-0.9,0-1.4,0c-0.1,0-0.2,0-0.2-0.1c0-0.1,0-0.1,0.2-0.1
			c0.2,0,0.3,0,0.4,0c0.2,0,0.3-0.3,0.3-0.6c0.1-0.5,0.1-1.3,0.1-2.3V53.7z M146.1,54.9c0,1.2,0,2,0,2.2c0,0.3,0,0.7,0.1,0.8
			c0.1,0.2,0.6,0.4,1.4,0.4c1.1,0,1.9-0.2,2.5-0.8c0.7-0.6,0.9-1.6,0.9-2.7c0-1.4-0.6-2.3-1.1-2.7c-1-1-2.3-1.1-3.1-1.1
			c-0.2,0-0.6,0-0.7,0.1c-0.1,0-0.1,0.1-0.1,0.2c0,0.4,0,1.3,0,2.2V54.9z"/>
		<path class="st0" d="M155.4,55.9C155.3,55.9,155.3,55.9,155.4,55.9l-0.7,1.7c-0.1,0.3-0.2,0.5-0.2,0.7c0,0.2,0.1,0.3,0.4,0.3h0.2
			c0.1,0,0.2,0,0.2,0.1c0,0.1-0.1,0.1-0.2,0.1c-0.3,0-0.8,0-1.2,0c-0.1,0-0.7,0-1.3,0c-0.1,0-0.2,0-0.2-0.1c0-0.1,0-0.1,0.1-0.1
			c0.1,0,0.3,0,0.3,0c0.5-0.1,0.7-0.4,0.9-1l2.7-6.9c0.1-0.3,0.2-0.4,0.3-0.4c0.1,0,0.2,0.1,0.3,0.3c0.3,0.6,2,5.1,2.7,6.7
			c0.4,1,0.7,1.1,1,1.2c0.2,0,0.3,0,0.5,0c0.1,0,0.1,0,0.1,0.1c0,0.1-0.1,0.1-0.5,0.1c-0.4,0-1.2,0-2.1,0c-0.2,0-0.3,0-0.3-0.1
			c0-0.1,0-0.1,0.2-0.1c0.1,0,0.2-0.1,0.1-0.3l-0.9-2.3c0-0.1-0.1-0.1-0.1-0.1H155.4z M157.6,55.4C157.7,55.4,157.7,55.3,157.6,55.4
			l-0.9-2.8c0,0,0-0.1-0.1-0.1c0,0-0.1,0.1-0.1,0.1l-1,2.7c0,0,0,0.1,0,0.1H157.6z"/>
		<path class="st0" d="M163.4,53.7c0-1.7,0-2,0-2.3c0-0.4-0.1-0.5-0.5-0.6c-0.1,0-0.3,0-0.4,0c-0.1,0-0.2,0-0.2-0.1
			c0-0.1,0.1-0.1,0.2-0.1c0.6,0,1.3,0,1.6,0c0.3,0,1,0,1.7,0c1.4,0,3.2,0,4.4,1.2c0.5,0.6,1.1,1.5,1.1,2.8c0,1.4-0.6,2.4-1.2,3.1
			c-0.5,0.5-1.6,1.3-3.7,1.3c-0.8,0-1.8-0.1-2.3-0.1c-0.3,0-0.9,0-1.4,0c-0.1,0-0.2,0-0.2-0.1c0-0.1,0-0.1,0.2-0.1
			c0.2,0,0.3,0,0.4,0c0.2,0,0.3-0.3,0.3-0.6c0.1-0.5,0.1-1.3,0.1-2.3V53.7z M164.8,54.9c0,1.2,0,2,0,2.2c0,0.3,0,0.7,0.1,0.8
			c0.1,0.2,0.6,0.4,1.4,0.4c1.1,0,1.9-0.2,2.5-0.8c0.7-0.6,0.9-1.6,0.9-2.7c0-1.4-0.6-2.3-1-2.7c-1-1-2.3-1.1-3.1-1.1
			c-0.2,0-0.6,0-0.7,0.1c-0.1,0-0.1,0.1-0.1,0.2c0,0.4,0,1.3,0,2.2V54.9z"/>
		<path class="st0" d="M82.8,73.5c-1.1-0.9-1.4-2.2-1.4-3.2c0-0.7,0.2-2,1.3-3c0.8-0.7,1.8-1.2,3.5-1.2c0.7,0,1.1,0,1.6,0.1
			c0.4,0.1,0.8,0.2,1.1,0.2c0.1,0,0.2,0.1,0.2,0.1c0,0.1,0,0.2-0.1,0.6c0,0.4,0,1,0,1.2c0,0.2,0,0.3-0.1,0.3c-0.1,0-0.1-0.1-0.1-0.2
			c0-0.3-0.2-0.7-0.4-1c-0.4-0.4-1.2-0.7-2.2-0.7c-1,0-1.6,0.2-2.1,0.7c-0.8,0.7-1,1.8-1,2.8c0,2.6,2,3.9,3.4,3.9c1,0,1.6-0.1,2-0.6
			c0.2-0.2,0.3-0.5,0.4-0.7c0-0.2,0.1-0.2,0.1-0.2c0.1,0,0.1,0.1,0.1,0.2c0,0.1-0.1,1.1-0.2,1.5c-0.1,0.2-0.1,0.2-0.3,0.3
			c-0.4,0.2-1.3,0.3-2,0.3C85.1,74.7,83.8,74.3,82.8,73.5z"/>
		<path class="st0" d="M92.7,71.7C92.7,71.7,92.6,71.7,92.7,71.7L92,73.3c-0.1,0.3-0.2,0.5-0.2,0.7c0,0.2,0.1,0.3,0.4,0.3h0.2
			c0.1,0,0.2,0,0.2,0.1c0,0.1-0.1,0.1-0.2,0.1c-0.3,0-0.8,0-1.2,0c-0.1,0-0.7,0-1.3,0c-0.1,0-0.2,0-0.2-0.1c0-0.1,0-0.1,0.1-0.1
			c0.1,0,0.3,0,0.3,0c0.5-0.1,0.7-0.4,0.9-1l2.7-6.9c0.1-0.3,0.2-0.4,0.3-0.4c0.1,0,0.2,0.1,0.3,0.3c0.3,0.6,2,5.1,2.7,6.7
			c0.4,1,0.7,1.1,1,1.2c0.2,0,0.3,0,0.5,0c0.1,0,0.1,0,0.1,0.1c0,0.1-0.1,0.1-0.5,0.1c-0.4,0-1.2,0-2.1,0c-0.2,0-0.3,0-0.3-0.1
			c0-0.1,0-0.1,0.2-0.1c0.1,0,0.2-0.1,0.1-0.3l-0.9-2.3c0-0.1-0.1-0.1-0.1-0.1H92.7z M94.9,71.1C95,71.1,95,71.1,94.9,71.1L94,68.4
			c0,0,0-0.1-0.1-0.1c0,0-0.1,0.1-0.1,0.1l-1,2.7c0,0,0,0.1,0,0.1H94.9z"/>
		<path class="st0" d="M101.5,66.9l-1.6,0c-0.6,0-0.9,0.1-1.1,0.3c-0.1,0.2-0.2,0.3-0.2,0.4c0,0.1-0.1,0.1-0.1,0.1
			c-0.1,0-0.1-0.1-0.1-0.2c0-0.2,0.2-1.2,0.2-1.3c0-0.1,0.1-0.2,0.1-0.2c0.1,0,0.2,0.1,0.5,0.1c0.3,0,0.7,0.1,1.1,0.1h4.3
			c0.7,0,1-0.1,1-0.1c0.1,0,0.1,0.1,0.1,0.2c0,0.2,0,1,0,1.3c0,0.1,0,0.2-0.1,0.2c-0.1,0-0.1-0.1-0.1-0.2l0-0.1
			c0-0.3-0.3-0.6-1.3-0.6l-1.4,0v4.5c0,1,0,1.9,0.1,2.3c0,0.3,0.1,0.5,0.4,0.6c0.2,0,0.4,0,0.6,0c0.1,0,0.2,0,0.2,0.1
			c0,0.1-0.1,0.1-0.2,0.1c-0.7,0-1.4,0-1.7,0c-0.3,0-0.9,0-1.4,0c-0.1,0-0.2,0-0.2-0.1c0-0.1,0-0.1,0.2-0.1c0.2,0,0.3,0,0.4,0
			c0.2,0,0.3-0.3,0.3-0.6c0.1-0.5,0.1-1.3,0.1-2.3V66.9z"/>
		<path class="st0" d="M106.7,70.4c0-1.9,1.2-4.3,4.5-4.3c2.7,0,4.4,1.6,4.4,4.1c0,2.5-1.8,4.5-4.5,4.5
			C108,74.7,106.7,72.3,106.7,70.4z M114.1,70.6c0-2.5-1.4-4-3.2-4c-1.3,0-2.7,0.7-2.7,3.4c0,2.3,1.3,4.1,3.4,4.1
			C112.4,74.1,114.1,73.8,114.1,70.6z M113,64.5c0.1,0.1,0,0.2-0.1,0.2c-0.1,0-0.2,0-0.4,0c-0.6,0.1-1.5,0.4-1.9,0.6
			c-0.1,0-0.2,0.1-0.2,0.1c0,0-0.1,0-0.1-0.1c0,0,0-0.1,0.1-0.1c0.4-0.4,1.6-1.3,1.8-1.4c0.1-0.1,0.2-0.1,0.2-0.1
			c0.1,0,0.1,0,0.2,0.1C112.8,64,112.9,64.2,113,64.5z"/>
		<path class="st0" d="M119.4,71.4c0,1.4,0,2.2,0.2,2.4c0.2,0.2,0.5,0.2,1.3,0.2c0.6,0,1,0,1.3-0.3c0.1-0.1,0.3-0.4,0.3-0.7
			c0-0.1,0-0.2,0.1-0.2c0.1,0,0.1,0.1,0.1,0.2c0,0.1-0.1,0.9-0.2,1.3c-0.1,0.2-0.1,0.3-0.7,0.3c-1.6,0-2.3-0.1-3.2-0.1
			c-0.3,0-0.9,0-1.4,0c-0.1,0-0.2,0-0.2-0.1c0-0.1,0-0.1,0.2-0.1c0.2,0,0.3,0,0.4,0c0.2,0,0.3-0.3,0.3-0.6c0.1-0.5,0.1-1.3,0.1-2.3
			v-1.9c0-1.7,0-2,0-2.3c0-0.4-0.1-0.5-0.5-0.6c-0.1,0-0.2,0-0.4,0c-0.1,0-0.2,0-0.2-0.1c0-0.1,0.1-0.1,0.2-0.1c0.5,0,1.2,0,1.5,0
			c0.3,0,1.1,0,1.5,0c0.2,0,0.2,0,0.2,0.1c0,0.1-0.1,0.1-0.2,0.1c-0.1,0-0.3,0-0.4,0c-0.3,0.1-0.4,0.2-0.4,0.6c0,0.3,0,0.7,0,2.3
			V71.4z"/>
		<path class="st0" d="M125,69.4c0-1.7,0-2,0-2.3c0-0.4-0.1-0.6-0.4-0.6c-0.1,0-0.3,0-0.4,0c-0.1,0-0.2,0-0.2-0.1
			c0-0.1,0.1-0.1,0.3-0.1c0.4,0,1.1,0,1.4,0c0.3,0,0.9,0,1.3,0c0.1,0,0.2,0,0.2,0.1c0,0.1-0.1,0.1-0.2,0.1s-0.2,0-0.3,0
			c-0.3,0.1-0.4,0.2-0.4,0.6c0,0.3,0,0.7,0,2.3v1.9c0,1.1,0,1.9,0,2.4c0,0.3,0.1,0.5,0.4,0.5c0.2,0,0.4,0,0.6,0c0.1,0,0.2,0,0.2,0.1
			c0,0.1-0.1,0.1-0.2,0.1c-0.7,0-1.4,0-1.7,0c-0.3,0-0.9,0-1.4,0c-0.1,0-0.2,0-0.2-0.1c0-0.1,0-0.1,0.2-0.1c0.2,0,0.3,0,0.4,0
			c0.2,0,0.3-0.2,0.3-0.5c0.1-0.5,0.1-1.3,0.1-2.4V69.4z"/>
		<path class="st0" d="M130,73.5c-1.1-0.9-1.4-2.2-1.4-3.2c0-0.7,0.2-2,1.3-3c0.8-0.7,1.8-1.2,3.5-1.2c0.7,0,1.1,0,1.6,0.1
			c0.4,0.1,0.8,0.2,1.1,0.2c0.1,0,0.2,0.1,0.2,0.1c0,0.1,0,0.2-0.1,0.6c0,0.4,0,1,0,1.2c0,0.2,0,0.3-0.1,0.3c-0.1,0-0.1-0.1-0.1-0.2
			c0-0.3-0.2-0.7-0.4-1c-0.4-0.4-1.2-0.7-2.2-0.7c-1,0-1.6,0.2-2.1,0.7c-0.8,0.7-1,1.8-1,2.8c0,2.6,2,3.9,3.4,3.9c1,0,1.6-0.1,2-0.6
			c0.2-0.2,0.3-0.5,0.4-0.7c0-0.2,0.1-0.2,0.1-0.2c0.1,0,0.1,0.1,0.1,0.2c0,0.1-0.1,1.1-0.2,1.5c-0.1,0.2-0.1,0.2-0.3,0.3
			c-0.4,0.2-1.3,0.3-2,0.3C132.3,74.7,131,74.3,130,73.5z"/>
		<path class="st0" d="M139.9,71.7C139.8,71.7,139.8,71.7,139.9,71.7l-0.7,1.7c-0.1,0.3-0.2,0.5-0.2,0.7c0,0.2,0.1,0.3,0.4,0.3h0.2
			c0.1,0,0.2,0,0.2,0.1c0,0.1-0.1,0.1-0.2,0.1c-0.4,0-0.8,0-1.2,0c-0.1,0-0.7,0-1.3,0c-0.1,0-0.2,0-0.2-0.1c0-0.1,0-0.1,0.1-0.1
			c0.1,0,0.3,0,0.3,0c0.5-0.1,0.7-0.4,0.9-1l2.7-6.9c0.1-0.3,0.2-0.4,0.3-0.4c0.1,0,0.2,0.1,0.3,0.3c0.3,0.6,2,5.1,2.7,6.7
			c0.4,1,0.7,1.1,1,1.2c0.2,0,0.3,0,0.5,0c0.1,0,0.1,0,0.1,0.1c0,0.1-0.1,0.1-0.5,0.1c-0.4,0-1.2,0-2.1,0c-0.2,0-0.3,0-0.3-0.1
			c0-0.1,0-0.1,0.2-0.1c0.1,0,0.2-0.1,0.1-0.3l-0.9-2.3c0-0.1-0.1-0.1-0.1-0.1H139.9z M142.1,71.1C142.2,71.1,142.2,71.1,142.1,71.1
			l-0.9-2.8c0,0,0-0.1-0.1-0.1s-0.1,0.1-0.1,0.1l-1,2.7c0,0,0,0.1,0,0.1H142.1z"/>
		<path class="st0" d="M82.7,85.2c0-1.7,0-2,0-2.3c0-0.4-0.1-0.5-0.5-0.6c-0.1,0-0.3,0-0.4,0c-0.1,0-0.2,0-0.2-0.1
			c0-0.1,0.1-0.1,0.2-0.1c0.6,0,1.3,0,1.6,0c0.3,0,1,0,1.7,0c1.4,0,3.2,0,4.4,1.2c0.5,0.6,1.1,1.5,1.1,2.8c0,1.4-0.6,2.4-1.2,3.1
			c-0.5,0.5-1.6,1.3-3.7,1.3c-0.8,0-1.8-0.1-2.3-0.1c-0.3,0-0.9,0-1.4,0c-0.1,0-0.2,0-0.2-0.1c0-0.1,0-0.1,0.2-0.1
			c0.2,0,0.3,0,0.4,0c0.2,0,0.3-0.3,0.3-0.6c0.1-0.5,0.1-1.3,0.1-2.3V85.2z M84,86.4c0,1.2,0,2,0,2.2c0,0.3,0,0.7,0.1,0.8
			c0.1,0.2,0.6,0.4,1.4,0.4c1.1,0,1.9-0.2,2.5-0.8c0.7-0.6,0.9-1.6,0.9-2.7c0-1.4-0.6-2.3-1.1-2.7c-1-1-2.3-1.1-3.1-1.1
			c-0.2,0-0.6,0-0.7,0.1c-0.1,0-0.1,0.1-0.1,0.2c0,0.4,0,1.3,0,2.2V86.4z"/>
		<path class="st0" d="M92.8,85.2c0-1.7,0-2,0-2.3c0-0.4-0.1-0.5-0.5-0.6c-0.1,0-0.3,0-0.4,0c-0.1,0-0.2,0-0.2-0.1
			c0-0.1,0.1-0.1,0.2-0.1c0.6,0,1.3,0,1.6,0c0.4,0,2.5,0,2.7,0c0.2,0,0.4,0,0.5-0.1c0.1,0,0.1,0,0.2,0c0.1,0,0.1,0,0.1,0.1
			c0,0.1-0.1,0.2-0.1,0.7c0,0.1,0,0.6-0.1,0.7c0,0.1,0,0.1-0.1,0.1c-0.1,0-0.1-0.1-0.1-0.2c0-0.1,0-0.3-0.1-0.4
			c-0.1-0.2-0.2-0.3-0.7-0.4c-0.2,0-1.3,0-1.6,0c-0.1,0-0.1,0-0.1,0.1v2.8c0,0.1,0,0.1,0.1,0.1c0.2,0,1.5,0,1.8,0
			c0.3,0,0.4-0.1,0.5-0.2c0.1-0.1,0.1-0.1,0.2-0.1c0,0,0.1,0,0.1,0.1c0,0.1-0.1,0.2-0.1,0.8c0,0.2,0,0.7,0,0.7c0,0.1,0,0.2-0.1,0.2
			c-0.1,0-0.1,0-0.1-0.1c0-0.1,0-0.3,0-0.4c-0.1-0.2-0.2-0.4-0.6-0.4c-0.2,0-1.3,0-1.6,0c-0.1,0-0.1,0-0.1,0.1v0.9
			c0,0.4,0,1.4,0,1.7c0,0.8,0.2,0.9,1.3,0.9c0.3,0,0.7,0,1-0.1c0.3-0.1,0.4-0.4,0.5-0.8c0-0.1,0-0.2,0.1-0.2c0.1,0,0.1,0.1,0.1,0.2
			c0,0.3-0.1,1-0.1,1.2c-0.1,0.3-0.2,0.3-0.6,0.3c-1.7,0-2.4-0.1-3-0.1c-0.3,0-0.9,0-1.4,0c-0.1,0-0.2,0-0.2-0.1
			c0-0.1,0-0.1,0.2-0.1c0.2,0,0.3,0,0.4,0c0.2,0,0.3-0.3,0.3-0.6c0.1-0.5,0.1-1.3,0.1-2.3V85.2z"/>
		<path class="st0" d="M103.7,89.2c-1.1-0.9-1.4-2.2-1.4-3.2c0-0.7,0.2-2,1.3-3c0.8-0.7,1.8-1.2,3.5-1.2c0.7,0,1.1,0,1.6,0.1
			c0.4,0.1,0.8,0.2,1.1,0.2c0.1,0,0.2,0.1,0.2,0.1c0,0.1,0,0.2-0.1,0.6c0,0.4,0,1,0,1.2c0,0.2,0,0.3-0.1,0.3c-0.1,0-0.1-0.1-0.1-0.2
			c0-0.3-0.2-0.7-0.4-1c-0.4-0.4-1.2-0.7-2.2-0.7c-1,0-1.6,0.2-2.1,0.7c-0.8,0.7-1,1.8-1,2.8c0,2.6,2,3.9,3.4,3.9c1,0,1.6-0.1,2-0.6
			c0.2-0.2,0.3-0.5,0.4-0.7c0-0.2,0.1-0.2,0.1-0.2c0.1,0,0.1,0.1,0.1,0.2c0,0.1-0.1,1.1-0.2,1.5c-0.1,0.2-0.1,0.2-0.3,0.3
			c-0.4,0.2-1.3,0.3-2,0.3C105.9,90.4,104.7,90.1,103.7,89.2z"/>
		<path class="st0" d="M118.2,85.5C118.2,85.5,118.3,85.5,118.2,85.5l0.1-0.3c0-1.7,0-2,0-2.3c0-0.4-0.1-0.5-0.5-0.6
			c-0.1,0-0.3,0-0.4,0c-0.1,0-0.2,0-0.2-0.1c0-0.1,0.1-0.1,0.2-0.1c0.6,0,1.3,0,1.6,0c0.3,0,1,0,1.4,0c0.2,0,0.2,0,0.2,0.1
			c0,0.1-0.1,0.1-0.2,0.1c-0.1,0-0.2,0-0.3,0c-0.3,0.1-0.4,0.2-0.4,0.6c0,0.3,0,0.7,0,2.3v1.9c0,1,0,1.9,0.1,2.3
			c0,0.3,0.1,0.5,0.4,0.6c0.2,0,0.4,0,0.6,0c0.1,0,0.2,0,0.2,0.1c0,0.1-0.1,0.1-0.2,0.1c-0.7,0-1.4,0-1.7,0c-0.3,0-0.9,0-1.4,0
			c-0.2,0-0.2,0-0.2-0.1c0-0.1,0-0.1,0.2-0.1c0.2,0,0.3,0,0.4,0c0.2,0,0.3-0.3,0.3-0.6c0.1-0.5,0.1-1.3,0.1-2.3v-1
			c0,0,0-0.1-0.1-0.1H114c0,0-0.1,0-0.1,0.1v1c0,1,0,1.9,0.1,2.3c0,0.3,0.1,0.5,0.4,0.6c0.2,0,0.4,0,0.6,0c0.1,0,0.2,0,0.2,0.1
			c0,0.1-0.1,0.1-0.2,0.1c-0.7,0-1.4,0-1.7,0c-0.3,0-0.9,0-1.4,0c-0.1,0-0.2,0-0.2-0.1c0-0.1,0-0.1,0.2-0.1c0.2,0,0.3,0,0.4,0
			c0.2,0,0.3-0.3,0.3-0.6c0.1-0.5,0.1-1.3,0.1-2.3v-1.9c0-1.7,0-2,0-2.3c0-0.4-0.1-0.5-0.5-0.6c-0.1,0-0.3,0-0.4,0
			c-0.1,0-0.2,0-0.2-0.1c0-0.1,0.1-0.1,0.2-0.1c0.6,0,1.3,0,1.6,0c0.3,0,1,0,1.4,0c0.2,0,0.2,0,0.2,0.1c0,0.1-0.1,0.1-0.2,0.1
			c-0.1,0-0.2,0-0.3,0c-0.3,0.1-0.4,0.2-0.4,0.6c0,0.3,0,0.7,0,2.3v0.2c0,0.1,0,0.1,0.1,0.1H118.2z"/>
		<path class="st0" d="M123.4,85.2c0-1.7,0-2,0-2.3c0-0.4-0.1-0.6-0.4-0.6c-0.1,0-0.3,0-0.4,0c-0.1,0-0.2,0-0.2-0.1
			c0-0.1,0.1-0.1,0.3-0.1c0.4,0,1.1,0,1.4,0c0.3,0,0.9,0,1.3,0c0.1,0,0.2,0,0.2,0.1c0,0.1-0.1,0.1-0.2,0.1c-0.1,0-0.2,0-0.3,0
			c-0.3,0.1-0.4,0.2-0.4,0.6c0,0.3,0,0.7,0,2.3v1.9c0,1.1,0,1.9,0,2.4c0,0.3,0.1,0.5,0.4,0.5c0.2,0,0.4,0,0.6,0c0.1,0,0.2,0,0.2,0.1
			c0,0.1-0.1,0.1-0.2,0.1c-0.7,0-1.4,0-1.7,0c-0.3,0-0.9,0-1.4,0c-0.1,0-0.2,0-0.2-0.1c0-0.1,0-0.1,0.2-0.1c0.2,0,0.3,0,0.4,0
			c0.2,0,0.3-0.2,0.3-0.5c0.1-0.5,0.1-1.3,0.1-2.4V85.2z"/>
		<path class="st0" d="M129.9,87.1c0,1.4,0,2.2,0.2,2.4c0.2,0.2,0.5,0.2,1.3,0.2c0.6,0,1,0,1.3-0.3c0.1-0.1,0.3-0.4,0.3-0.7
			c0-0.1,0-0.2,0.1-0.2c0.1,0,0.1,0.1,0.1,0.2c0,0.1-0.1,0.9-0.2,1.3c-0.1,0.2-0.1,0.3-0.7,0.3c-1.6,0-2.3-0.1-3.2-0.1
			c-0.3,0-0.9,0-1.4,0c-0.1,0-0.2,0-0.2-0.1c0-0.1,0-0.1,0.2-0.1c0.2,0,0.3,0,0.4,0c0.2,0,0.3-0.3,0.3-0.6c0.1-0.5,0.1-1.3,0.1-2.3
			v-1.9c0-1.7,0-2,0-2.3c0-0.4-0.1-0.5-0.5-0.6c-0.1,0-0.2,0-0.4,0c-0.1,0-0.2,0-0.2-0.1c0-0.1,0.1-0.1,0.2-0.1c0.5,0,1.2,0,1.5,0
			c0.3,0,1.1,0,1.5,0c0.2,0,0.2,0,0.2,0.1c0,0.1-0.1,0.1-0.2,0.1c-0.1,0-0.3,0-0.4,0c-0.3,0.1-0.4,0.2-0.4,0.6c0,0.3,0,0.7,0,2.3
			V87.1z"/>
		<path class="st0" d="M135.5,85.2c0-1.7,0-2,0-2.3c0-0.4-0.1-0.5-0.5-0.6c-0.1,0-0.3,0-0.4,0c-0.1,0-0.2,0-0.2-0.1
			c0-0.1,0.1-0.1,0.2-0.1c0.6,0,1.3,0,1.6,0c0.3,0,2.5,0,2.7,0c0.2,0,0.4,0,0.5-0.1c0.1,0,0.1,0,0.2,0s0.1,0,0.1,0.1
			c0,0.1-0.1,0.2-0.1,0.7c0,0.1,0,0.6-0.1,0.7c0,0.1,0,0.1-0.1,0.1c-0.1,0-0.1-0.1-0.1-0.2c0-0.1,0-0.3-0.1-0.4
			c-0.1-0.2-0.2-0.3-0.7-0.4c-0.2,0-1.3,0-1.6,0c-0.1,0-0.1,0-0.1,0.1v2.8c0,0.1,0,0.1,0.1,0.1c0.2,0,1.5,0,1.8,0
			c0.3,0,0.4-0.1,0.5-0.2c0.1-0.1,0.1-0.1,0.2-0.1c0,0,0.1,0,0.1,0.1c0,0.1-0.1,0.2-0.1,0.8c0,0.2,0,0.7,0,0.7c0,0.1,0,0.2-0.1,0.2
			c-0.1,0-0.1,0-0.1-0.1c0-0.1,0-0.3,0-0.4c-0.1-0.2-0.2-0.4-0.6-0.4c-0.2,0-1.3,0-1.6,0c-0.1,0-0.1,0-0.1,0.1v0.9
			c0,0.4,0,1.4,0,1.7c0,0.8,0.2,0.9,1.3,0.9c0.3,0,0.7,0,1-0.1c0.3-0.1,0.4-0.4,0.5-0.8c0-0.1,0-0.2,0.1-0.2c0.1,0,0.1,0.1,0.1,0.2
			c0,0.3-0.1,1-0.1,1.2c-0.1,0.3-0.2,0.3-0.6,0.3c-1.7,0-2.4-0.1-3-0.1c-0.3,0-0.9,0-1.4,0c-0.1,0-0.2,0-0.2-0.1
			c0-0.1,0-0.1,0.2-0.1c0.2,0,0.3,0,0.4,0c0.2,0,0.3-0.3,0.3-0.6c0.1-0.5,0.1-1.3,0.1-2.3V85.2z"/>
	</g>
	<g>
		<path class="st0" d="M66.9,41.6c1-0.2,1.9-1.2,1.9-2.4c0-0.7-0.3-1.8-1.7-2.7c-0.2-0.1-0.4-0.2-0.6-0.3c1-0.4,1.6-1.1,1.6-2.1
			c0-0.7-0.5-1.2-1.2-1.2c-0.3,0-0.6,0.1-0.9,0.4c-0.2,0.2-0.3,0.5-0.3,0.7c-0.1,0.1-0.5,0.2-1.5,0.2c-0.4,0-0.8-0.1-1.2-0.2
			c0.2-0.1,0.9-0.7,1.2-0.9c0.3-0.2,1-0.4,1.3-1c0.8-1.4,1.1-2.1,1.4-3.4c0.2-0.6,0.2-1.2,0.2-1.8c0-0.5-0.1-0.9-0.1-1.2L66.9,25
			c0-0.4-0.1-1.6-1.1-1.9c0,0-1.7-2.6-1.8-2.7c-0.1-0.1-0.1-0.1-0.2,0c-0.1,0.1-0.7,0.9-0.7,0.9c-0.2,0-0.5,0-0.7,0.2
			c-0.1-0.1-0.1-0.1-0.2-0.2c-0.1,0-0.1-0.1-0.2-0.1l-0.3-2l-0.2,0c0,0-1,0.2-1.1,0.2c0,0-0.3-0.1-0.6-0.2c-0.1,0-0.2-0.2-0.3-0.3
			c0-0.1,0-0.2,0-0.3c0-1-0.5-1.7-1.3-2.1c-0.6-0.3-1.6-0.5-2.7,0.5c-0.1,0-0.2,0-0.4-0.1c-0.3-0.1-0.4-0.3-0.5-0.3l-0.7-1.2l-1.6,1
			c-1-0.8-1.4-1.1-2-0.8c-0.2,0.1-0.4,0.2-0.6,0.5c0.1-0.1,0.1-0.3,0.1-0.4c0-0.6-0.5-1.2-1.1-1.2c-0.1,0-0.2-0.1-0.2-0.1
			c-0.1-0.3-0.5-1.3-0.6-1.3c0-0.1-0.2-0.1-0.3,0c-0.1,0.1-1.9,1.5-1.9,1.5c-0.2-1.2-1.1-2-2.1-2.2v-1.8h-0.9v0c0-2.5-1.7-4.3-4-4.3
			c-0.1,0-0.2,0-0.4,0V4.6H40V1.8h-1.8V0h-2.9v1.8h-1.8v2.8h1.8v1.7c-0.2,0-0.4-0.1-0.6-0.1c-2.4,0-4,1.8-4,4.3h-1.1v1.8
			c-1.1,0.3-1.9,1.3-2,2.6l-0.8-0.7c0,0-1.6-1.3-1.6-1.3l-0.2-0.1l-3.3,3.9c-0.4-0.3-0.9-0.4-1.5-0.4c-1.1,0-2.2,0.4-2.4,0.4
			c-1.1-1.1-2.2-0.8-2.8-0.6c-0.6,0.3-1.4,0.9-1.4,2.1c0,0.1,0,0.2,0,0.3c-0.1,0.1-0.2,0.2-0.4,0.3c0,0-0.2,0.1-0.2,0.1
			c-1.2,0.9-1.8,1.7-1.9,2.5H6.1l0,4.8h3.6c-0.2,0.2-1.6,1.3-1.6,3.5c0,2.6,2.1,3.9,2.4,4C10.1,34,9.7,34,9.3,34
			c-1,0-1.4-0.1-1.5-0.2c-0.1-0.6-0.6-1.1-1.2-1.1c-0.7,0-1.2,0.6-1.2,1.2c0,1.5,1.2,2,1.6,2.1c-0.2,0.1-2.3,1-2.3,3
			c0,1.3,0.9,2.2,1.9,2.4C2.4,47.6,0,54.9,0,62.7C0.1,83,16.7,99.3,36.9,99.2c20.2-0.1,36.6-16.7,36.5-36.9
			C73.4,54.6,71,47.5,66.9,41.6z M8.8,38.7c0-0.1-0.1-0.1-0.1-0.2c-0.2-0.2-0.4-0.3-0.6-0.3c-0.1,0,0.1-0.1,0.3-0.2
			c0.2-0.1,1.4-0.5,1.4-0.5C9.3,38.1,9.3,38.1,8.8,38.7z M13.2,25.1c-0.1,0-1,0-2.1,0.6c0-0.5,0-1.3,0-1.3c0.3,0,1,0,2,0
			c0.1,0.1,0.4,0.5,0.6,0.8C13.5,25.2,13.3,25.2,13.2,25.1z M25.5,25.4C25.5,25.4,25.5,25.4,25.5,25.4c-0.6,0-1.1,0-1.5,0
			c0-0.3-0.1-0.4-0.1-0.8c0.6,0,1,0,1.1,0C25.1,24.8,25.3,25.2,25.5,25.4z M24.1,18.3c0,0,0.6,0.5,1,0.8c-1.1,0.5-1.9,1.2-2,1.6
			l-0.2-0.9C23.4,19.1,23.9,18.6,24.1,18.3z M15.6,30.1C15.6,30.1,15.6,30.1,15.6,30.1c0-0.4-0.2-0.8-0.3-1c0.1-0.1,0.4-0.4,0.7-0.9
			c0.3,0.3,0.4,0.4,0.5,0.6C16.2,29.3,15.9,29.7,15.6,30.1z M16.9,31.6c0.6-0.7,1-1.3,1.4-1.7c0.3-0.4,0.9-1.1,1-1.2
			c0.3-0.1,0.7,0.3,0.7,0.4c0.3,0.3,0.7,0.4,1.1,0.3C19.7,29.9,18.3,30.7,16.9,31.6z M21.3,29.2c0.3-0.2,0.5-0.5,0.5-0.9
			c0,0,0-0.2,0-0.3c0-0.2,0-0.5,0.2-0.6c0.2,0,1.1,0,1.6,0c0.6,0,1.4,0,2.2,0C24.3,27.9,22.7,28.5,21.3,29.2z M28.4,18.9
			c-0.4-0.1-0.7-0.2-1.1-0.2c-0.5,0-1,0.1-1.4,0.2l2.1-2.6c0,0,0.4,1,1.2,1.5C28.9,18.3,28.6,18.6,28.4,18.9z M34.6,17
			c0.7,0.5,1.5,0.8,2.2,0.8c0.7,0,1.5-0.3,2.2-0.8c0.2,0.3,0.3,0.5,0.4,0.8c-0.9,0.3-1.9,0.8-2.6,1.5c-0.7-0.7-1.6-1.1-2.6-1.5
			C34.3,17.5,34.4,17.2,34.6,17z M30.4,14.3c0.2,0,0.3,0.4,0.3,0.5c0,0.2-0.1,0.7-0.4,1.3c-0.3-0.3-0.4-0.6-0.4-0.8
			C29.9,14.8,30.2,14.3,30.4,14.3z M30.1,19.9c0.3-0.3,0.6-0.7,0.9-1.1c0.3,0.1,0.5,0.2,0.8,0.3c-0.1,0.5-0.1,1.1-0.1,1.6
			c0,0.2,0,0.4,0,0.6c-0.2,0.1-0.3,0.1-0.5,0.1C30.7,20.4,30.2,19.9,30.1,19.9z M31.1,24.8c0.2-0.4,0.3-0.9,0.3-1.4
			c0.2-0.1,0.6-0.2,0.8-0.2c0.2,0.4,0.4,0.7,0.7,1C32.5,24.4,32,24.6,31.1,24.8z M32.3,17.1c-0.1,0-0.2-0.1-0.2-0.1
			c0.4-0.7,0.6-1.4,0.6-2c0.1,0.2,0.3,0.4,0.4,0.5C32.8,16.1,32.5,16.6,32.3,17.1z M33.9,20.7c-0.1,0-0.1,0-0.2,0.1c0,0,0,0,0-0.1
			c0-0.3,0-0.6,0.1-0.9c0.6,0.2,1.2,0.4,1.2,0.4S34.2,20.1,33.9,20.7z M34.8,23.2c-0.2-0.2-0.3-0.4-0.5-0.6c1.3-0.3,1.4-1.2,1.4-1.2
			S35.8,22.3,34.8,23.2z M36.7,24.7c-0.1-0.1-0.2-0.1-0.4-0.2c0.1-0.1,0.3-0.3,0.4-0.4c0.1,0.1,0.2,0.3,0.4,0.4
			C36.9,24.5,36.8,24.6,36.7,24.7z M38.7,23.2c-1-0.9-1-1.8-1-1.8s0.1,0.9,1.4,1.2C39,22.8,38.8,23,38.7,23.2z M39.8,20.8
			c-0.1,0-0.2-0.1-0.2-0.1c-0.4-0.6-1-0.5-1-0.5s0.6-0.2,1.2-0.4C39.8,20.1,39.8,20.4,39.8,20.8C39.8,20.7,39.8,20.7,39.8,20.8z
			 M40.8,15.1c0.1,0.6,0.3,1.2,0.6,2c-0.1,0-0.2,0.1-0.2,0.1c-0.2-0.5-0.5-1-0.8-1.5C40.5,15.5,40.7,15.3,40.8,15.1z M40.4,24.3
			c0.3-0.3,0.5-0.7,0.7-1c0.3,0.1,0.6,0.2,0.8,0.2c0,0.5,0.1,1,0.3,1.4C41.5,24.6,40.9,24.4,40.4,24.3z M42.3,21.4
			c-0.2-0.1-0.3-0.1-0.5-0.1c0-0.2,0-0.4,0-0.6c0-0.5-0.1-1.1-0.1-1.6c0.3-0.1,0.5-0.2,0.8-0.3c0.3,0.4,0.6,0.8,0.9,1.1
			C43.3,19.9,42.7,20.4,42.3,21.4z M43.1,16.1c-0.3-0.6-0.4-1-0.4-1.3c0-0.1,0.1-0.5,0.3-0.5c0.2,0,0.5,0.5,0.5,1
			C43.5,15.5,43.5,15.8,43.1,16.1z M48.5,21.5c0.7-0.5,1.1-1,1.4-1.3l0.1,0l0.2,0l0,0.1c0,0.1,0,0.3,0.1,0.4l0,0l0,0
			c-0.6,0.5-1.3,1.1-1.5,2.2L48.7,23l-0.1-0.2l0-0.1c0-0.1,0-0.4,0-0.4c0,0,0-0.1,0-0.1C48.5,22,48.5,21.8,48.5,21.5L48.5,21.5
			L48.5,21.5z M44.6,24.8C44,24.3,44,23.5,44,23.1c0,0,0,0,0,0c0-0.2,0-0.5,0.1-0.7c0.2,0.1,0.4,0.2,0.6,0.2
			c0.1,0.1,0.2,0.2,0.2,0.2c-0.1,0.3-0.5,0.7-0.5,0.7l-0.1,0.6C44.3,24.1,44.5,24.5,44.6,24.8z M45.1,18.9c-0.2-0.3-0.5-0.6-0.8-1.1
			c1.1-0.8,1.3-1.7,1.3-1.7s0.4,0.4,1,0.5c0.2,0.4,0.4,0.7,0.7,1c0,0,0,0,0,0c-0.1,0.2-0.7,0.7-1.1,1C45.7,18.7,45.3,18.8,45.1,18.9
			z M46.5,25.2c0-0.3-0.1-0.6-0.1-0.9c0,0,0-0.1,0-0.3c0.2-0.2,0.4-0.5,0.4-0.5l0,0.3c0,0.1,0.2,0.3,0.2,0.3s0.1,0,0.2,0
			c0,0,0.1,0.1,0.2,0.1l0.7,0.6c0,0,0.4,0.1,0.6,0.1c0,0,0,0,0,0c0.1,0.1,0.2,0.3,0.2,0.4c-0.7,0-1.5,0-2.4,0
			C46.7,25.4,46.6,25.3,46.5,25.2z M47.6,27.4c0.8,0,1.6,0,2.2,0c0.5,0,1.1,0,1.4,0c0.1,0.1,0.3,0.2,0.4,0.3c0,0.1,0,0.4,0,0.7
			c0,0.3,0.2,0.7,0.5,0.9C50.7,28.5,49.2,27.9,47.6,27.4z M52.3,29.3c0.4,0.1,0.8-0.1,1.1-0.3c0.2-0.2,0.3-0.3,0.4-0.3
			c0.1,0,0.3,0.1,0.4,0.1c0.2,0.3,0.6,0.7,0.9,1.1c0.4,0.5,0.8,1.1,1.4,1.7C55.2,30.7,53.8,29.9,52.3,29.3z M58.5,30.8
			c-0.5-0.6-0.9-1.1-1.3-1.6c0.2,0,0.4,0,0.6,0c0.1,0.1,0.1,0.1,0.1,0.2c0,0.2,0,0.6,0.3,0.8l0.6,0.2C58.8,30.5,58.6,30.7,58.5,30.8
			z M64.6,38.7c-0.5-0.6-0.7-0.8-1.2-1.4L65,38c0.3,0.1,0.4,0.2,0.4,0.2C64.9,38.3,64.7,38.6,64.6,38.7z"/>
		<g>
			<path class="st1" d="M36.9,98.3C17.2,98.4,1,82.5,0.9,62.7c0-7.9,2.5-15.2,6.8-21.2c0.3-0.1,0.5-0.2,0.7-0.4
				c0.3-0.3,0.6-0.7,0.7-1.4c6.5-7.9,16.4-13,27.4-13c11.2-0.1,21.2,5,27.8,13c0.2,1.3,1.1,1.7,1.4,1.8c4.2,5.8,6.8,13,6.8,20.8
				C72.7,82,56.7,98.2,36.9,98.3z"/>
			<g>
				<path class="st1" d="M22.6,19C22.6,19,22.6,19.1,22.6,19l1.7-1.9l0.6,0.5l-0.2,0.3l0.7,0.6l1-1.1l-0.7-0.6l-0.2,0.3l-0.6-0.5
					l0.7-0.9l0.6,0.5l-0.2,0.3l0.7,0.6l1-1.2l-0.7-0.6l-0.2,0.3L26,15.1l0.2-0.3l-1-0.8l-3.2,3.8C22,18.4,22.2,18.7,22.6,19z"/>
				<path class="st1" d="M8.5,24.6H8.1v-0.8h1.1v0.8H8.9v0.9l1.5,0v-0.9H10v-0.8h2.7c0-0.5-0.1-0.8-0.8-1.3H7v1.3h0.4l0,0.8H7v0.9
					h1.5L8.5,24.6z"/>
				<path class="st1" d="M25.5,24c0,0.7,0.6,1.5,1.5,1.5c0.9,0,1.3-0.8,1.4-1c0.2-0.1,1-0.4,1-1.4c0-1-0.8-1.3-1-1.4
					c-0.1-0.2-0.4-1-1.4-1c-0.8,0-1.5,0.7-1.5,1.5c0,0,0,0.1,0,0.1l-2.4,0l0,0.1c-0.2,0.5-0.1,0.9,0.3,1.3c0,0,0.1,0.1,0.1,0.1l0,0
					h1.9C25.5,23.9,25.5,23.9,25.5,24z M26.6,22.5c0-0.3,0.1-0.5,0.4-0.5c0.5,0,0.4,0.5,0.5,0.6c0.2,0.2,0.6,0.1,0.6,0.6
					c0,0.4-0.5,0.4-0.6,0.6c-0.2,0.2-0.1,0.6-0.5,0.6c-0.3,0-0.4-0.2-0.4-0.5V22.5z"/>
				<path class="st1" d="M15.4,26.8c-0.3-0.3-0.7-0.4-0.7-0.4l-1.4,1.7c0,0-0.1-0.1-0.1-0.1c-0.3-0.2-0.6-0.3-0.9-0.3
					c0,0-0.1,0-0.1,0c-0.4,0-0.7,0.2-1,0.5c-0.3,0.3-0.4,0.7-0.3,1.1c0,0.2,0.2,0.5,0.2,0.6c0,0.1-0.1,0.3-0.1,0.5
					c0,0.8,0.7,1.4,1.5,1.4c0.3,0,0.6-0.2,0.7-0.2c0.1,0,0.4,0.1,0.6,0.1c0.7,0,1.3-0.6,1.3-1.6c0-0.4-0.2-0.7-0.5-1
					c0,0-0.1-0.1-0.1-0.1l1.3-1.5C15.6,27.5,15.6,27,15.4,26.8z M13.8,30.5c-0.3,0.4-0.6,0-0.8,0c-0.2,0-0.5,0.4-0.8,0.1
					c-0.3-0.3,0-0.6,0-0.8c0-0.2-0.4-0.5-0.2-0.8c0.2-0.2,0.5-0.2,0.7,0l1,0.8C13.9,30,14,30.3,13.8,30.5z"/>
				<path class="st1" d="M20.3,17.2c-1.1,0-2,0.4-2.5,0.4c-0.2,0-0.3,0-0.4-0.2c-0.4-0.4-0.9-0.9-1.9-0.5c-0.9,0.4-0.9,1.2-0.8,1.7
					c0.1,0.4-0.5,0.7-0.8,1l-0.2,0.1c-1.3,0.9-1.8,1.8-1.5,2.4c1.4,2.3,5.2,6.7,5.2,6.7c0,0,1.3-1.3,2.8-2c1.7-0.8,3.3-0.9,3.3-0.9
					c0,0-0.9-5.7-1.8-8.2C21.5,17.4,21,17.2,20.3,17.2z M13.5,21.8c0.1-0.1,0.3-0.4,1-0.9l0.1-0.1c0.4-0.3,1.4-0.9,1.4-2
					c0-0.1,0-0.2,0-0.3c0-0.1,0-0.2,0-0.2c0-0.1,0-0.1,0.1-0.2c0,0,0.1,0,0.1,0c0,0,0.1,0,0.2,0.2c0.3,0.4,0.8,0.6,1.4,0.6
					c0.5,0,0.9-0.1,1.2-0.2l0.2,0c0.5-0.1,0.8-0.2,1.1-0.2c0.1,0,0.2,0,0.2,0c0,0.1,0.1,0.4,0.2,0.9c-0.8,0.2-1.7,0.4-2.5,0.7
					c-0.2-0.2-0.5-0.4-0.9-0.4c-0.2,0-0.3,0-0.5,0.1c-0.4,0.2-0.7,0.6-0.7,1.1c0,0,0,0.1,0,0.1c-0.8,0.4-1.6,0.9-2.3,1.5
					C13.7,22.1,13.6,21.9,13.5,21.8z M15,23.8c0.9-0.7,1.9-1.3,2.9-1.8c1-0.5,2.2-0.8,3.3-1c0,0,0.2,1,0.2,1.1
					c-0.7,0.1-1.3,0.3-1.9,0.5c-0.2-0.2-0.5-0.4-0.9-0.4c-0.2,0-0.3,0-0.5,0.1c-0.4,0.2-0.7,0.6-0.7,1.1c0,0.1,0,0.1,0,0.1
					c-0.6,0.4-1.2,0.8-1.8,1.2L15,23.8z M21.9,24.7c-0.4,0.1-0.9,0.2-1.3,0.4c-0.2-0.3-0.6-0.4-0.9-0.4c-0.2,0-0.3,0-0.5,0.1
					c-0.3,0.1-0.5,0.4-0.6,0.7c0,0.1-0.1,0.3-0.1,0.4c0,0.1,0,0.1,0,0.2c-0.4,0.2-0.8,0.5-1.2,0.8L16.7,26c0.7-0.6,1.5-1.1,2.4-1.5
					c0.9-0.4,1.8-0.7,2.7-0.9L21.9,24.7z"/>
				<path class="st1" d="M66.7,37.1c-0.3-0.2-0.6-0.3-0.9-0.4c0,0,0,0-1.4-0.6c0,0-0.4-0.2-0.6-0.3l0.4,0c1,0,3.2,0,3.2-1.7
					c0-0.3-0.2-0.5-0.5-0.5c-0.1,0-0.3,0.1-0.3,0.1c-0.1,0.1-0.1,0.2-0.1,0.3c0,0.4-0.3,0.8-2.2,0.8c-1.2,0-2.4-0.5-3.2-1
					c0.8-0.1,1.5-0.4,2.2-0.9c0.8-0.7,1.3-1.6,1.4-2.6c0-0.1,0-0.2,0-0.4c0-0.9-0.3-1.8-0.8-2.3c-0.2-0.2-0.3-0.3-0.5-0.3
					c-0.1,0-0.2,0-0.3,0.1c-0.1,0.1-0.1,0.2-0.1,0.3c0,0.2,0.1,0.3,0.2,0.5c0.3,0.3,0.6,0.9,0.6,1.7c0,0.1,0,0.2,0,0.3
					c-0.1,0.8-0.4,1.4-1.1,2c-0.2,0.2-1,0.7-2,0.7c-0.1,0-0.1,0-0.2,0c0,0-0.1,0-0.1,0l-0.2,0c0,0,0.1,0.6-0.1,0.8
					c-0.2,0.2-0.8,0-0.8,0L59,33.6l0.4,0.3c0.9,0.8,1.8,1.5,2.8,2.1l0,0h0c0.2,0.1,1.7,0.9,1.7,0.9l1.5,0.6c0.3,0.1,0.5,0.2,0.8,0.4
					c0.6,0.4,0.9,0.8,0.9,1.2c0,0.5-0.4,0.8-0.6,0.8c-0.2,0-0.5-0.1-0.5-0.6c0-0.3-0.2-0.5-0.5-0.5c-0.3,0-0.5,0.2-0.5,0.5
					c0,0.9,0.6,1.6,1.5,1.6c0.9,0,1.6-0.9,1.6-1.8C68.1,38.3,67.6,37.6,66.7,37.1z"/>
				<path class="st1" d="M19.6,28c0.5,0.1,1,0.6,1,0.6c0.1,0.1,0.3,0.1,0.4,0.1c0.1-0.1,0.2-0.2,0.2-0.3c0,0-0.1-0.7,0.2-1.1
					C20.8,27.3,20,27.6,19.6,28z"/>
				<path class="st1" d="M17,29.2c-0.2,0.3-1.2,1.5-2,2.3l-0.1,0.1c-0.6,0.8-1.4,1.1-2.1,1.1c-0.9,0-1.7-0.6-1.9-0.7
					c-0.6-0.5-1-1.2-1.1-2c-0.1-0.9,0.3-1.6,0.6-2c1.2-1.4,2.8-1.4,2.8-1.4c0.3,0,0.5-0.2,0.5-0.5c0-0.3-0.2-0.5-0.5-0.5
					c-0.1,0-2.1,0-3.6,1.8c-0.6,0.7-0.9,1.7-0.8,2.7c0.1,1,0.6,1.9,1.4,2.6c0.7,0.5,1.4,0.9,2.2,0.9c-0.8,0.5-1.9,1-3.2,1
					c-0.4,0-1.7,0-2.1-0.4C7.1,34.3,7,34.1,7,34c0-0.3-0.2-0.5-0.5-0.5c-0.3,0-0.5,0.3-0.5,0.5c0,1.2,1,1.7,3.2,1.7l0.3,0L9,36
					l-1.4,0.6c-0.3,0.1-0.6,0.2-0.9,0.4c-0.9,0.6-1.4,1.3-1.4,2.1c0,1,0.8,1.8,1.5,1.8c0.8,0,1.6-0.5,1.6-1.6c0-0.3-0.2-0.5-0.5-0.5
					c-0.1,0-0.3,0.1-0.3,0.1c-0.1,0.1-0.1,0.2-0.1,0.3c0,0.2-0.1,0.6-0.5,0.6c-0.2,0-0.5-0.3-0.6-0.7c0-0.5,0.3-0.9,0.9-1.3
					c0.3-0.2,0.4-0.2,0.8-0.4l1.4-0.6l0,0c0.1,0,0.5-0.2,1.8-0.9c1.1-0.7,2.1-1.5,3-2.4c0,0,0,0,0.2-0.2c1.5-1.4,2.4-2.6,3.2-3.6
					C18,29.4,17.2,28.9,17,29.2z"/>
				<path class="st1" d="M49.7,25.9c-0.6,0-2.6,0-2.6,0v0.2l0,0l0,0c0,0.1,0,0.2,0,0.3c0,0.1,0,0.2-0.1,0.3L47,26.9l2.9-0.1
					C50.4,26.9,50.2,25.9,49.7,25.9z"/>
				<path class="st1" d="M58.3,31.4l-0.2-0.3c-0.7-0.8-1.3-1.6-1.8-2.2c-0.2-0.2-1.2,0-0.8,0.6c0.4,0.6,1,1.3,1.7,2.1l0.1,0.1
					l0.1-0.1c0.1,0,0.3-0.2,0.6-0.2H58.3z"/>
				<path class="st1" d="M45.3,26.3c0,0-0.2-0.2-0.3-0.3l-0.1-0.4l-0.1,0c-1.4-0.7-1.4-2.3-1.4-2.5c0-0.5,0.1-0.9,0.3-1.4l0-0.1
					l0-0.1c0,0,0-0.1,0-0.1c0-0.4,0.3-0.8,0.7-0.8h0.1c0,0,0.1-0.5,0.8-1l0.6-0.5c0,0-0.9,0.3-1,0.3c-0.2-0.2-0.8-0.9-1.4-1.8
					c1-0.6,1.5-1.4,1.5-2.4c0-1.3-0.9-2.4-2-2.4c-1,0-1.8,1-1.8,2c0,1,0.6,2.1,0.8,2.5c-0.3,0.1-0.8,0.3-1.2,0.5
					c-0.1-0.3-0.4-1.2-1-2l-0.1-0.2l-0.1,0.1c-0.2,0.2-0.3,0.3-0.5,0.5L39,16.3l0.1,0.1c0.3,0.6,0.7,1.2,0.8,1.7
					c-1.3,0.5-2.5,0.9-3.2,1.9c-0.7-1-2-1.5-3.2-1.9c0.1-0.3,0.3-0.9,0.8-1.7l0.1-0.1l-0.1-0.1c-0.2-0.1-0.3-0.3-0.5-0.5l-0.1-0.1
					l-0.1,0.2c-0.6,0.8-0.9,1.6-1,2.1c-0.4-0.1-0.8-0.3-1.2-0.5c0.2-0.4,0.8-1.5,0.8-2.5c0-0.9-0.8-2-1.8-2c-1.1,0-2,1.1-2,2.4
					c0,1.4,1.1,2.2,1.5,2.4c-0.2,0.3-0.8,1.1-1.4,1.8c-0.2-0.1-0.7-0.3-1.3-0.3c-2.3,0-3.6,1.5-3.7,1.6c-0.1,0.1-0.1,0.2-0.1,0.4
					c0,0.1,0.1,0.2,0.2,0.3c0.1,0.1,0.2,0.1,0.3,0.1c0.1,0,0.3-0.1,0.4-0.2c0,0,1-1.2,2.9-1.2c0.5,0,1.3,0.2,1.9,0.8
					c0.5,0.5,0.8,1.3,0.8,2.1c0,1.4-0.8,2.8-3,2.8l-0.2,0c-0.8,0-2.4,0-2.7,0c-0.3,0-0.3,0.9,0,0.9c0.7,0,1.6,0,2.4,0
					c4.7,0,7.7-1.5,8.3-1.8c0.4,0.3,1.6,1.1,2.1,1.1c0.4,0,1.6-0.9,2.1-1.1c0.4,0.3,2.4,1.4,6.5,1.7l0.4,0l-0.2-0.2L45.3,26.3z
					 M43,13.8c0.5,0,1,0.7,1,1.5c0,0.9-0.7,1.4-1,1.6c-0.2-0.3-0.7-1.3-0.7-2.1C42.3,14.5,42.6,13.8,43,13.8z M42.6,18.2
					c0.5,0.8,1.1,1.5,1.4,1.8c-0.3,0.2-1.1,0.9-1.4,2.1c0,0-0.9-0.2-1.4-0.4c0-0.2,0.1-0.5,0.1-1c0-1-0.1-1.7-0.2-2
					C41.4,18.6,42,18.4,42.6,18.2z M29.4,15.3c0-0.8,0.5-1.5,1-1.5c0.5,0,0.8,0.6,0.8,1c0,0.8-0.5,1.7-0.7,2.1
					C30.2,16.7,29.4,16.2,29.4,15.3z M29.4,20c0.3-0.3,0.9-1,1.4-1.8c0.6,0.3,1.2,0.5,1.5,0.6c-0.1,0.3-0.2,1-0.2,2
					c0,0.4,0.1,0.8,0.1,1c-0.5,0.1-1.1,0.3-1.4,0.4C30.5,20.9,29.8,20.2,29.4,20z M30.2,25.6c0.3-0.4,0.8-1.3,0.8-2.5
					c0.9-0.2,1.3-0.4,1.6-0.4c0.4,0.9,1,1.5,1.3,1.8C33.4,24.7,32.1,25.2,30.2,25.6z M34.7,23.9c-0.5-0.5-1-1-1.2-1.5l1-0.3
					c0.6-0.2,0.9-0.7,0.8-1.2c-0.1-0.2-0.3-0.4-0.5-0.4c0,0-0.1,0-0.1,0c-0.2,0.1-0.4,0.3-0.4,0.5c0,0,0,0,0,0.1c0,0-0.1,0-0.2,0.1
					l-1,0.3c-0.1-0.2-0.1-0.5-0.1-0.7c0-0.6,0.1-1.1,0.2-1.6c1.5,0.5,2.9,1.1,2.9,2.4C36.2,22.4,35.7,23.2,34.7,23.9z M36.7,25.2
					c-0.5-0.2-0.9-0.6-1.2-0.7c0.3-0.2,0.8-0.7,1.2-1.4c0.4,0.7,0.9,1.2,1.2,1.4C37.7,24.7,37.2,25,36.7,25.2z M38.7,23.9
					c-0.9-0.7-1.4-1.5-1.4-2.4c0-1.3,1.4-1.9,2.9-2.4c0.1,0.5,0.2,1.1,0.2,1.6c0,0.2,0,0.5-0.1,0.7l-1-0.3c-0.1,0-0.1,0-0.1-0.1
					c0,0,0,0,0-0.1c0-0.2-0.2-0.4-0.4-0.5c0,0-0.1,0-0.1,0c-0.2,0-0.4,0.1-0.5,0.4c-0.1,0.5,0.2,1,0.8,1.2l1,0.3
					C39.6,22.9,39.2,23.4,38.7,23.9z M39.6,24.4c0.3-0.3,0.9-0.9,1.3-1.8c0.2,0.1,0.7,0.2,1.6,0.4c0,1.2,0.5,2.1,0.8,2.5
					C41.4,25.2,40,24.7,39.6,24.4z"/>
				<path class="st1" d="M59.3,21.7L59.3,21.7c-0.4-0.1-0.7-0.3-0.8-0.3c-0.4-0.2-1.5-0.9-1.5-2c0-0.1,0-0.2,0-0.2
					c0-0.1,0-0.1,0-0.2c0,0-0.1,0-0.1,0.1c-0.3,0.4-0.8,0.6-1.3,0.6c-0.4,0-0.8-0.1-1.1-0.2c-0.2-0.1-0.6-0.2-0.9-0.5l0,0
					c0,0,0.2,1.2-0.3,1.9c-0.7,1-1.5,1.3-1.9,2c-0.4,0.7,0.1,1.4,0.5,1.7c0,0,0.6,0.5,0.7,0.5c0.5,0.3,0.9,0.7,1.2,1l0,0
					c0.5,0,1.1,0.2,1.6,0.3l0.8,0.2c0.1,0,0.3,0,0.4,0c0.4,0,0.9-0.1,1.3-0.8c0.3-0.5-0.2-1.8,0.4-3C58.5,22,59.3,21.7,59.3,21.7z
					 M55.8,23.6l-0.2,1.6l-0.8-1.4L53.2,24l1.1-1.1l-0.7-1.3l0,0l1.4,0.7l1.1-1.1l-0.2,1.5l1.4,0.7L55.8,23.6z"/>
				<path class="st1" d="M59.4,33.1l0.2-0.1c-0.1-0.3-0.3-0.7-0.4-0.8l0.7-1.2c0,0,0.2,0,0.2,0.1c0.1,0.2,0.2,0.4,0.2,0.4l0.4-0.9
					l-0.2,1.3c0,0,0.4,0.3,0.4,0.3c0,0,0,0,0,0l0.5-0.1c0,0,0,0,0,0c0,0,0.3-1.4,0.3-1.5c0-0.1,0-0.6,0-0.8c0.1,0,0.1,0,0.2,0
					c0.3,0,0.8-0.6,1.1-0.7c-0.1,0.2-0.2,0.7-0.2,0.8c0,0.2-0.1,0.5-0.1,0.6c-0.1,0.3-0.2,0.6-0.3,0.9c0,0,0,0.1,0,0.1
					c0.5-0.4,0.8-1,0.8-1.5l0-0.2c0-0.6-0.2-1.1-0.4-1.4c-0.2-0.2-0.3-0.5-0.3-0.8c0-0.2,0.1-0.5,0.2-0.6c0.2-0.2,0.4-0.3,0.7-0.3
					c0.2,0,0.6,0.1,0.9,0.5c0.6,0.7,0.9,1.6,0.9,2.7l0,0.4c0,0.3-0.1,0.5-0.1,0.8c0.5-0.9,0.8-1.6,1-2.6c0.4-1.7,0.1-2.3,0-3.2
					c0-0.5-0.1-1.2-0.8-1.2c-0.7,0-0.6,1.9-1.8,1.9c-0.1,0-0.3-0.1-0.4-0.2l0.1-0.5c0.2,0,0.6-0.2,0.6-0.8c0-0.1,0-0.2-0.1-0.2
					c0.5-0.4,0.5-0.7,0.5-1.1l0.6-0.2l-0.3-0.2l0.1-0.3l-0.3,0l0-0.3l-0.3,0l-0.1-0.4l-0.4,0.5c-0.2-0.1-0.3,0-0.5,0
					c-0.1,0-0.4,0-0.5,0.2l-0.1,0.2c0.4-0.1,0.5,0.1,0.5,0.3c0,0.2,0.2,0.4,0.2,0.5L63,23.6c-0.1-0.1-0.5-0.2-0.7-0.2
					c-0.3,0-0.5,0.2-0.7,0.4c-0.1,0-0.3,0-0.4,0.1L61,24.1c-0.1-0.1-0.2-0.2-0.2-0.4c0-0.2,0.7-0.5,0.8-1c-0.4,0.2-0.8,0.5-1,0.6
					c-0.4,0.3-0.5,0.5-0.5,1.8c0,1.4-0.2,1.8-0.2,1.8s0.1,1,0,1.1c-0.1,0.2-0.9,0.8-1,0.9l-0.5-0.8c0-0.1,0-0.1,0-0.2
					c0,0,0.1,0,0.1-0.1c0.3-0.3,0.6-0.6,0.7-0.9c0.3-0.6,0.3-1.2,0.3-1.8c0-1.8,0.1-1.8,1.8-2.7l-0.3-2.2l-0.4,0.1
					c-0.3,0-0.7-0.1-1.1-0.3c-0.3-0.1-0.9-0.6-0.9-1c0.1-0.8-0.1-1.4-0.8-1.7c-0.7-0.3-1.3-0.2-1.8,0.5c-0.1,0.1-0.3,0.1-0.5,0.1
					c-1.4,0-1.9-1.2-1.9-1.2l-1.4,0.9c-0.1-0.1-0.3-0.4-0.7-0.7c-0.2-0.1-0.5-0.6-0.8-0.5c-0.1,0.1-0.5,0.5-0.6,0.6
					c-0.1,0.1-0.3,0.4-0.4,0.5c-0.1-0.2-0.6-0.7-1-1c-0.2-0.1-0.4-0.3-0.4-0.3c0-0.1,0.8-0.2,0.7-0.6c-0.1-0.2-0.5-0.2-0.6-0.3
					c-0.2-0.1-0.3-0.2-0.6-0.3l-0.3-0.7l-0.1,0.5L47,14.5l0,0.5l-0.4-0.2l0.1,0.4l-0.5-0.1l0.4,0.4l-0.7,0.1
					c0.1,0.3,0.8,0.5,1.1,0.5c0,0,0,0.1,0,0.2c0.1,0.4,0.5,0.7,0.8,1l0.1,0.5c-0.1,0.1-0.4,0.7-1,1.1c-0.2,0.2-0.4,0.3-0.5,0.4
					c-0.3,0.3-0.5,0.5-0.5,0.6c-0.1,0-0.5,0.4-0.7,0.7c-0.1,0.2-0.2,0.5-0.2,0.8c-0.1,0-0.3,0.1-0.4,0c0,0,0-0.1,0-0.1
					c0-0.2-0.2-0.2-0.2,0c0,0.1,0,0.2,0,0.3c0.1,0.3,0.4,0.3,0.7,0.3c0.1,0.2,0.2,0.3,0.3,0.4c0.1,0.1,0.2,0.2,0.3,0.3
					c0.1,0.3-0.3,1-0.5,1.2l0,0.2c0,0,0.1,0.3,0.2,0.5c0.1,0.4,0.2,0.8,0.2,1.2l0.3,0.3l0.1,0.3l0.1,0.1c0.1,0.1,0.3,0.2,0.5,0.1
					c0.1,0,0.1-0.2,0.1-0.2c0-0.1-0.4-0.5-0.5-0.6c-0.1-0.1-0.2-0.3-0.2-0.3c0-0.5-0.1-0.9-0.2-1.4c0.1-0.1,0.5-0.4,0.7-0.8
					c0.2-0.3,0.5-0.7,0.6-0.8c0.1,0,0.2,0.1,0.3,0.3c0.1,0.2,0,0.5,0,0.5l0.2,0.2c0.5,0.1,1,0.8,1,0.8l0.6,0.1l0.2,0.2l0.1,0
					c0.2,0.5,0.5,1,1,1.4l0.1,0l1,0.7c0.3,0.2,0.5,0.4,0.7,0.5c0.2,0.4,0.1,0.9,0.1,1c0,0.1,0.1,0.3,0.2,0.4c0.1,0.1,0.3,0,0.4-0.1
					c0.1-0.1,0.6-0.5,0.9-0.6c0.3,0,0.5,0.1,0.8,0.2l1.1,0.3l0,0c0.5,0.1,1,0.1,1.5,0c0,0,0,0,0,0l0.1,0.1c0.3,0.1,0.5,0,0.9-0.1
					l0.4,0.7c0,0.1,0,0.6,0.1,0.6c0.2,0,0.9-0.3,1-0.3c0.1,0,0,0.1,0,0.3c0,0.4-0.2,0.4-0.2,1l-0.7,1.3c-0.3,0-0.5-0.2-0.8-0.2
					c-0.1,0-0.3,0.1-0.3,0.1l0,0.1c0,0,0.2,0,0.3,0c0.1,0,0.1,0.1,0.2,0.1c-0.3,0-0.6,0.3-0.6,0.3l0,0.1c0.1,0,0.4-0.2,0.6-0.2
					c0.1,0,0.2,0,0.3,0c-0.1,0.2-0.2,0.4-0.2,0.4l0.1,0.1c0-0.1,0.3-0.4,0.5-0.4C59.2,32.7,59.4,33,59.4,33.1z M50.4,17.7
					c0.1-0.3,0.3-0.5,0.4-0.5c0.3,0,0.8,0.7,0.9,0.8c0,0,0.2,0.8,0.2,1.5c0,0.4-0.4,0.8-0.5,0.9c0,0,0-1.3-0.1-1.6
					c-0.1-0.2-0.9-0.2-1.3-0.2l0-0.1C50,18.4,50.3,18,50.4,17.7z M49.2,23.5c0,0.1,0,0.3,0,0.4c0,0,0,0,0,0c-0.1,0-0.6-0.2-0.9-0.4
					c-0.1-0.1-0.4-0.6-0.4-0.9c0-0.4,0.1-0.8-0.2-1.3c0.1-0.1,0.9-0.7,1.8-1.7l0.9-0.2c0.2,0,0.2,0,0.2,0.2l0.2,1.1
					c0,0.1-0.1,0.3-0.1,0.3S49.2,21.9,49.2,23.5z M57.7,26.8c-0.4,0.3-0.8,0.5-1.3,0.5c-0.2,0-0.3,0-0.5-0.1L55,27.1
					c-0.4-0.1-1-0.3-1.4-0.3l-0.3,0l-0.1-0.1c-0.3-0.4-0.7-0.7-1.2-1c0,0-0.7-0.5-0.7-0.5c-0.5-0.4-0.8-1-0.8-1.6
					c0-0.3,0.1-0.6,0.2-0.8c0.2-0.4,0.5-0.7,0.9-1c0.3-0.3,0.7-0.5,1-0.9c0-0.1,0.1-0.1,0.1-0.2l0.1-0.2c0.1-0.2,0.1-0.4,0.1-0.7
					c0-0.3,0-0.5-0.1-0.8l0-0.2l0.2-0.1c0.1-0.1,0.3-0.2,0.3-0.2l0.2-0.1l0.2,0.2c0.3,0.3,0.8,0.5,0.9,0.5c0.3,0.1,0.6,0.2,0.9,0.2
					c0.4,0,0.7-0.1,0.9-0.4c0.1-0.2,0.3-0.3,0.5-0.3c0.1,0,0.2,0,0.3,0.1c0.1,0.1,0.4,0.2,0.4,0.5c0,0.1,0,0.1,0,0.3
					c0,0.1,0,0.1,0,0.2c0,0.8,0.9,1.3,1.2,1.4c0.1,0,0.5,0.2,0.9,0.3l0.2,0l0.1,0.8l-0.2,0.2c-0.4,0.2-0.9,0.5-1.1,1l-0.1,0.2l0,0
					c0,0.1,0,0.1,0,0.2c-0.1,0.4-0.1,0.7-0.1,1l0,0.6c0,0.4,0,0.7-0.2,1.1C58.1,26.4,57.9,26.6,57.7,26.8z"/>
				<rect x="30.4" y="11.2" class="st1" width="12.5" height="1"/>
				<path class="st1" d="M32.9,10.5c0-1.1,0.6-2.3,2.1-2.3c0.9,0,1.4,0.5,1.7,1c0.3-0.5,0.9-1,1.7-1c1.4,0,2.1,1.2,2.1,2.3h1.2
					c0,0,0,0,0,0c0-2-1.3-3.4-3.1-3.4c-0.5,0-0.9,0.1-1.2,0.2V3.7h1.8V2.6h-1.8V0.8h-1.2v1.8h-1.8v1.1h1.8v3.6
					c-0.4-0.2-0.8-0.3-1.4-0.3c-1.9,0-3.1,1.4-3.1,3.4c0,0,0,0,0,0H32.9z"/>
				<path class="st1" d="M32.4,12.8c1,2.1,2.9,4,4.4,4c1.4,0,3.4-1.9,4.4-4h-1.3c-0.8,1.5-2.1,2.9-3.1,2.9c-1,0-2.3-1.3-3.1-2.9
					H32.4z"/>
			</g>
		</g>
		<polygon class="st0" points="10.3,30 10.3,30.1 10.3,30 		"/>
		<polygon class="st0" points="10.3,30 10.3,30.1 10.3,30 		"/>
		<g>
			<path class="st0" d="M9.6,62.5c0,15,12.2,27.1,27.1,27.1c15,0,27.1-12.2,27.1-27.1c0-15-12.2-27.1-27.1-27.1
				C21.8,35.4,9.6,47.6,9.6,62.5z"/>
		</g>
		<g>
			<path class="st2" d="M38.8,73.1c0,1.1,0.9,2,2,2c1.1,0,2-0.9,2-2H38.8z"/>
			<path class="st2" d="M45.7,73.5c-0.4-0.1-0.8-0.2-1-0.4c-0.3,0.5-2.9,4.6-3.2,5.1c0.2,0.1,0.5,0.3,0.9,0.4
				c0.6,0.2,1.2,0.1,1.9,0.1c0.6,0,1.1-0.1,1.5,0c0.5,0.2,0.8,0.5,1,1.1c0,0,0.3-0.2,0.5-0.3l-0.4-5.9
				C46.5,73.6,46.1,73.6,45.7,73.5z"/>
			<path class="st2" d="M56.7,68.1C56.7,68.1,56.7,68.1,56.7,68.1c0.5,0,0.8-0.4,0.8-0.8c0-0.4-0.4-0.8-0.8-0.8
				c-0.5,0-0.8,0.4-0.8,0.8c0,0,0,0,0,0.1c-1.5,0.1-4.5,0.2-6.5-1.3c0.2-0.2,0.3-0.5,0.3-0.8c0-0.6-0.5-1.2-1.2-1.2
				c-0.6,0-1.2,0.5-1.2,1.2c0,0.3,0.1,0.6,0.3,0.8c-2,1.5-5,1.4-6.5,1.3c0,0,0,0,0-0.1c0-0.4-0.4-0.8-0.8-0.8
				c-0.4,0-0.8,0.4-0.8,0.8c0,0.4,0.4,0.8,0.8,0.8c0,0,0,0,0,0h6.8l1.1,14.8c0,0.2,0.1,0.3,0.3,0.3c0.2,0,0.3-0.1,0.3-0.3l1.1-14.8
				H56.7z"/>
			<path class="st2" d="M51.7,74.6c-0.3-0.2-0.6-0.4-1.1-0.5c-0.1,0-0.2,0-0.3,0l-0.5,6.2c0.6,0.3,1.1,0.8,1.5,0.9
				c0.4,0.1,0.8,0.1,0.8,0.1s2.1-4.8,2.4-5.6c-0.3,0-0.9-0.1-1.3-0.2C52.5,75.2,52.1,74.9,51.7,74.6z"/>
			<path class="st2" d="M56.4,75.1c1.1,0,2-0.9,2-2h-4C54.4,74.2,55.3,75.1,56.4,75.1z"/>
		</g>
		<g>
			<path class="st2" d="M48.8,45.7c1.2,0,2.2-1,2.2-2.2c0-1.2-1-2.2-2.2-2.2c-1.2,0-2.1,1-2.1,2.2C46.6,44.8,47.6,45.7,48.8,45.7z
				 M48.8,42.8c0.4,0,0.8,0.3,0.8,0.8c0,0.4-0.3,0.8-0.8,0.8c-0.4,0-0.8-0.3-0.8-0.8C48,43.2,48.3,42.8,48.8,42.8z"/>
			<polygon class="st2" points="43.1,59.5 44.6,59.5 44.6,55.8 43.1,58.4 			"/>
			<path class="st2" d="M46.4,52.6l-0.9,1.5v5.4h1.5v-5.5c0-0.3,0.2-0.5,0.5-0.5c0.3,0,0.5,0.2,0.5,0.5v5.5h1.5v-5.5
				c0-0.3,0.2-0.5,0.5-0.5c0.3,0,0.5,0.2,0.5,0.5v5.5H52v-5.4l-0.9-1.5H46.4z"/>
			<path class="st2" d="M47.5,46.3c-0.4-0.2-0.7-0.4-1-0.7c-1.8,4.6-5.9,15.1-5.9,15.1c0,0,0.2,0.1,0.2,0.1l7.5-13.1L47.5,46.3z"/>
			<path class="st2" d="M42.7,52.3c0-0.9-0.4-1.4-1.2-1.4c-0.4,0-0.7,0.2-0.7,0.7c0,0.4,0.3,0.5,0.5,0.5c0.2,0,0.4,0.2,0.4,0.4
				c0,0.2-0.2,0.4-0.4,0.4c-0.8,0-1.4-0.6-1.4-1.4c0-0.9,0.7-1.5,1.6-1.5c0.9,0,1.6,0.5,1.9,1.2l0.9-2.2h-2.4c-1.7,0-2.8,1-2.8,2.6
				c0,1.2,1,2.1,2.1,2.1C42.1,53.8,42.7,53.2,42.7,52.3z"/>
			<polygon class="st2" points="50.6,51.7 49.1,49.1 48.4,49.1 46.9,51.7 			"/>
			<polygon class="st2" points="52.9,59.5 54.4,59.5 54.4,58.4 52.9,55.8 			"/>
			<path class="st2" d="M58.5,51.7c0-1.6-1.1-2.6-2.8-2.6h-2.4l0.9,2.2c0.3-0.8,1-1.2,1.9-1.2c0.9,0,1.6,0.7,1.6,1.5
				c0,0.8-0.6,1.4-1.4,1.4c-0.2,0-0.4-0.2-0.4-0.4c0-0.2,0.2-0.4,0.4-0.4c0.2,0,0.5-0.1,0.5-0.5c0-0.4-0.4-0.7-0.7-0.7
				c-0.7,0-1.2,0.5-1.2,1.4c0,0.9,0.6,1.5,1.5,1.5C57.5,53.8,58.5,52.9,58.5,51.7z"/>
			<path class="st2" d="M48.8,46.6c-0.1,0-0.1,0-0.2,0l8.1,14.2l0.2-0.1c0,0-4.1-10.4-5.9-15.1C50.5,46.2,49.7,46.6,48.8,46.6z"/>
		</g>
		<g>
			<path class="st2" d="M17.7,51.2c0,1.2,0.9,1.9,1.7,2.5c0.5,0.4,1.2,0.7,1.5,1.2l1.7-0.5c0,0,0.7-0.5,1-0.7
				c0.8-0.6,1.7-1.3,1.7-2.5v-0.9h-7.8V51.2z"/>
			<path class="st2" d="M20.4,56.6l2.6-0.7c0.2-0.1,0.4-0.3,0.3-0.5C23.3,55.1,23,55,22.8,55l-2.6,0.7c-0.2,0.1-0.4,0.3-0.3,0.5
				C19.9,56.6,20.2,56.7,20.4,56.6z"/>
			<path class="st2" d="M22.9,56.9l-2.6,0.7c-0.2,0.1-0.4,0.3-0.3,0.5c0.1,0.2,0.3,0.4,0.5,0.3l2.6-0.7c0.2-0.1,0.4-0.3,0.3-0.5
				C23.3,56.9,23.1,56.8,22.9,56.9z"/>
			<polygon class="st2" points="30.6,39.3 28.2,39.3 28.2,44.2 23.9,44.2 23.9,46.6 28.2,46.6 28.2,60.6 30.6,60.6 30.6,46.6 
				34.9,46.6 34.9,44.2 30.6,44.2 			"/>
			<path class="st2" d="M20.6,48c-0.6-0.1-1.1-0.2-1.8-0.2c-1.4,0-3.1,1.2-3.1,3.4c0,2.5,2,3.7,3.7,4.3c0.1-0.2,0.3-0.3,0.6-0.4
				l0.1,0c-0.3-0.2-0.9-0.5-1.8-1.2c-0.8-0.6-1.6-1.3-1.6-2.7c0-1.6,1.2-2.4,2.2-2.4c0.6,0,1.2,0.1,1.6,0.2c0.4,0.1,1,0.6,1.6,0.6
				c1.1,0,1.5-0.5,1.5-0.5l0.1-0.4c0,0-0.8-0.8-1.6-0.8C21.3,47.9,20.6,48,20.6,48z M22.4,48.6c0,0.1-0.1,0.2-0.2,0.2
				S22,48.7,22,48.6c0-0.1,0.1-0.2,0.2-0.2S22.4,48.5,22.4,48.6z"/>
			<path class="st2" d="M22.1,58.7L20.9,59c-0.5,0.5-1.6,1-1.6,1.5v0.1h4.6v-0.1C23.9,59.9,22.2,59.2,22.1,58.7z"/>
		</g>
		<g>
			<path class="st0" d="M14.9,82c-0.1-0.1-0.3-0.4-0.6-0.7c-0.1-0.1-0.1-0.1-0.2,0c0,0,0,0.1,0,0.1c0.3,0.4,0.3,0.4-0.4,1l-2.2,1.9
				c-0.1,0.1-0.1,0.1-0.2-0.1c-0.4-0.4-0.3-0.9,0.2-1.4c0.4-0.4,1-0.3,1.2,0c0.1,0.1,0.2,0.1,0.2,0.1c0.1-0.1,0-0.2-0.1-0.2
				c-0.6-0.7-1.4-0.7-2-0.2c-0.6,0.5-0.4,1.2,0.1,1.8c0.2,0.2,0.4,0.5,0.6,0.6c0.1,0.1,0.3,0.4,0.5,0.6c0.1,0.1,0.1,0.1,0.2,0.1
				c0,0,0-0.1,0-0.2C12,85.2,12,85,12.3,84.8l2.2-1.8c0.6-0.5,0.7-0.5,0.9-0.2c0,0.1,0.1,0.1,0.1,0c0,0,0-0.1,0-0.2
				C15.3,82.4,15,82.1,14.9,82z"/>
			<path class="st0" d="M11.7,77.5c-0.8-1.3-2.2-1.6-3.3-0.9c-1.2,0.7-1.4,1.9-0.7,3.2c0.9,1.5,2.4,1.4,3.2,0.9
				C11.9,80.2,12.6,79,11.7,77.5z M8.1,79.8C7.6,79,7.9,77.9,9,77.3c1.4-0.9,2.1-0.1,2.3,0.2c0.6,1,0.1,2-0.9,2.6
				C9.2,80.8,8.5,80.3,8.1,79.8z"/>
			<path class="st0" d="M9.8,74.5c0,0.1,0.1,0.1,0.1,0.1c0.1,0,0.1-0.1,0-0.2c-0.1-0.3-0.2-0.5-0.2-0.6c0-0.1-0.1-0.3-0.2-0.7
				C9.4,73,9.4,73,9.3,73c0,0,0,0.1,0,0.1c0.1,0.3,0.1,0.5-0.5,0.7l-2.2,0.8l1.9-4c0-0.1,0.1-0.2,0.1-0.2c0-0.1-0.1-0.1-0.2,0
				l-3.5,1.2c-0.3,0.1-0.5,0.1-0.6-0.2c0-0.1-0.1-0.1-0.1-0.1c-0.1,0-0.1,0.1,0,0.2C4.2,71.8,4.3,72,4.4,72c0,0.1,0.1,0.4,0.2,0.7
				c0,0.1,0.1,0.2,0.1,0.1c0.1,0,0.1-0.1,0-0.1c-0.1-0.4-0.1-0.5,0.3-0.6l2.4-0.9l-2,3.9c0,0.1-0.1,0.2-0.1,0.3c0,0.1,0.1,0.1,0.2,0
				l3.4-1.1C9.6,74.1,9.7,74.2,9.8,74.5z"/>
			<path class="st0" d="M4.6,70c0.1,0,0.1,0,0.1-0.1c0-0.1-0.1-0.1-0.1-0.1c-0.2,0-0.4-0.1-0.5-0.6L4,68.4l2.9-0.5
				c0.9-0.2,1-0.1,1,0.2c0,0.1,0,0.1,0.1,0.1c0.1,0,0.1-0.1,0.1-0.2c0-0.2-0.1-0.6-0.1-0.7c0-0.2-0.1-0.5-0.1-0.9
				c0-0.1-0.1-0.1-0.1-0.1c-0.1,0-0.1,0.1-0.1,0.1c0.1,0.5,0,0.5-0.9,0.7l-2.8,0.5l-0.1-0.7c-0.1-0.5,0-0.7,0.3-0.7
				c0.1,0,0.1-0.1,0.1-0.1C4.1,66,4.1,66,4,66c-0.1,0-0.6,0.1-0.7,0.1c-0.1,0-0.1,0-0.1,0.1c0,0,0.1,0.2,0.2,0.5l0.4,2.6
				c0,0.3,0,0.5,0,0.5c0,0.1,0,0.1,0.1,0.1C3.9,70,4.4,70,4.6,70z"/>
			<path class="st0" d="M3.3,64.8c0-0.3,0.1-0.4,0.3-0.4c0.2,0,0.4,0,1.2-0.1l1,0c0.6,0,1,0,1.3,0c0.3,0,0.3,0.1,0.3,0.3
				c0,0.1,0,0.1,0.1,0.1c0.1,0,0.1-0.1,0.1-0.2c0-0.2,0-0.6-0.1-0.7c0-0.2,0-0.5,0-0.9c0-0.1,0-0.1-0.1-0.1c-0.1,0-0.1,0.1-0.1,0.1
				c0,0.3,0,0.5-0.3,0.5c-0.2,0-0.7,0.1-1.3,0.1l-1,0c-0.9,0-1,0.1-1.2,0c-0.3,0-0.3-0.1-0.3-0.4c0-0.1,0-0.1-0.1-0.1
				c0,0-0.1,0.1-0.1,0.2c0,0.2,0,0.6,0,0.7c0,0.2,0,0.5,0,0.8c0,0.1,0,0.2,0.1,0.2C3.3,65,3.3,64.9,3.3,64.8z"/>
			<path class="st0" d="M3.2,61.4c0,0,0.1,0,0.1-0.1c0-0.4,0.1-0.5,0.7-0.4L6.5,61c0.8,0.1,0.8,0.1,0.8,0.4c0,0.1,0,0.1,0.1,0.1
				c0.1,0,0.1,0,0.1-0.1c0-0.2,0-0.6,0-0.7c0-0.2,0.1-0.5,0.1-0.9c0-0.1,0-0.2-0.1-0.2c-0.1,0-0.1,0-0.1,0.1c0,0.4,0,0.5-0.9,0.5
				l-0.9-0.1c0,0,0,0,0,0c0-0.1,0.1-0.7,0.1-0.8c0-0.2,0.2-0.3,0.4-0.3c0.1,0,0.1,0,0.1-0.1c0-0.1-0.1-0.1-0.1-0.1
				c-0.4,0-0.7-0.1-0.8-0.1c0,0-0.1,0-0.1,0.1c0,0.1,0.2,0.1,0.1,0.4l-0.1,1c0,0,0,0,0,0L3.6,60c0,0,0,0,0,0l0.1-0.9
				c0-0.2,0.1-0.3,0.2-0.3c0.1,0,0.1,0,0.2,0c0.1,0,0.1,0,0.1-0.1c0-0.1,0-0.1-0.1-0.1c-0.1,0-0.4-0.1-0.5-0.1c-0.1,0-0.1,0-0.2-0.1
				c0,0,0,0,0,0c0,0-0.1,0-0.1,0.1c0,0,0,0,0,0.1l0,0c0,0.1,0,0.2,0,0.3c0,0.1-0.1,1.3-0.1,1.5c0,0.2-0.1,0.5-0.1,0.8
				C3.1,61.3,3.1,61.4,3.2,61.4z"/>
			<path class="st0" d="M3.7,56.9c0.1-0.3,0.2-0.3,0.4-0.3c0.2,0,0.3,0.1,1.2,0.2l1,0.2c0.6,0.1,1,0.2,1.2,0.3
				c0.2,0.1,0.3,0.2,0.2,0.4c0,0.1,0,0.1,0,0.1c0.1,0,0.1,0,0.1-0.1C8,57.5,8,57.1,8,57c0-0.2,0.1-0.5,0.2-0.9c0-0.1,0-0.2-0.1-0.2
				c-0.1,0-0.1,0-0.1,0.1c-0.1,0.3-0.1,0.5-0.4,0.4c-0.2,0-0.7-0.1-1.3-0.2l-1-0.2c-0.9-0.2-1-0.2-1.2-0.2C4,55.7,3.9,55.6,4,55.4
				c0-0.1,0-0.1-0.1-0.1c0,0-0.1,0-0.1,0.1c0,0.2-0.1,0.6-0.1,0.7c0,0.2-0.1,0.5-0.2,0.7c0,0.1,0,0.2,0,0.2C3.7,57,3.7,57,3.7,56.9z
				"/>
			<path class="st0" d="M6.3,54.1c1.6,0.6,2.7-0.4,3.2-1.8c0.1-0.4,0.2-0.8,0.2-1.1c0-0.1,0-0.2-0.1-0.2c-0.2-0.1-0.6-0.4-0.7-0.4
				c-0.1,0-0.1,0-0.1,0c0,0.1,0,0.1,0.1,0.1c0.4,0.3,0.5,0.6,0.2,1.4c-0.3,1-1.2,1.5-2.5,1c-1-0.4-1.6-1.1-1.2-2.1
				c0.2-0.6,0.7-1.2,1.3-1c0.1,0,0.2,0,0.2,0c0-0.1,0-0.1-0.1-0.1c-0.1-0.1-0.4-0.2-0.6-0.2c-0.2-0.1-0.2-0.1-0.3-0.1
				c-0.1,0-0.1,0-0.1,0.1c-0.1,0.3-0.4,0.7-0.6,1.3C4.6,52.2,4.9,53.6,6.3,54.1z"/>
			<path class="st0" d="M6.6,47.9c0.2-0.3,0.3-0.3,0.5-0.2c0.2,0.1,0.3,0.2,1.1,0.6L9,48.8c0.5,0.3,0.9,0.5,1.1,0.6
				c0.2,0.1,0.2,0.2,0.1,0.4c0,0.1,0,0.1,0,0.1c0,0,0.1,0,0.2-0.1c0.1-0.2,0.3-0.6,0.3-0.7c0.1-0.1,0.3-0.5,0.4-0.8
				c0-0.1,0-0.2,0-0.2c0,0-0.1,0-0.1,0.1c-0.1,0.3-0.3,0.4-0.5,0.3c-0.2-0.1-0.6-0.3-1.1-0.6l-0.9-0.5c-0.8-0.4-0.9-0.5-1.1-0.6
				c-0.2-0.1-0.2-0.2-0.1-0.5c0,0,0-0.1,0-0.2c0,0-0.1,0-0.1,0.1C7,46.7,6.9,47,6.8,47.2c-0.1,0.2-0.3,0.5-0.4,0.7
				c-0.1,0.1-0.1,0.2,0,0.2C6.5,48,6.5,48,6.6,47.9z"/>
			<path class="st0" d="M11.3,46.8c0.2,0.4,0.3,0.5,0,0.8c0,0,0,0.1,0,0.1c0.1,0,0.1,0,0.2-0.1c0.2-0.2,0.3-0.5,0.4-0.6
				c0.1-0.1,0.3-0.3,0.4-0.5c0-0.1,0.1-0.1,0-0.2c-0.1,0-0.1,0-0.2,0.1c-0.1,0.2-0.2,0.2-0.3,0.1c-0.1,0-0.1-0.1-0.2-0.3l-0.3-0.5
				c0,0,0,0,0-0.1l0.8-1.2c0,0,0,0,0.1,0l1,0.3c0.1,0-0.1,0.3-0.1,0.3c0,0,0,0.1,0,0.1c0,0,0.1,0,0.2-0.1c0.1-0.1,0.3-0.4,0.4-0.5
				c0.1-0.1,0.3-0.3,0.3-0.4c0.1-0.2,0.1-0.3,0.1-0.3c-0.1,0-0.1,0-0.1,0c-0.2,0.2-0.5,0.2-0.9,0.1c-0.9-0.2-3.4-0.8-3.8-0.8
				c-0.2,0-0.2,0-0.3,0c0,0.1,0,0.1,0.1,0.3L11.3,46.8z M10,44L10,44l1.7,0.5l-0.7,1L10,44C10,44,10,44,10,44L10,44z"/>
			<path class="st0" d="M18.1,37.2l-1-1.2c-0.4-0.4-0.4-0.5-0.1-0.8c0.1-0.1,0.1-0.1,0-0.2c0,0-0.1,0-0.2,0
				c-0.2,0.1-0.3,0.3-0.5,0.4c-0.1,0.1-0.3,0.2-0.5,0.4c-0.1,0.1-0.1,0.1-0.1,0.2c0,0,0.1,0,0.2,0c0.3-0.3,0.4-0.2,0.8,0.2l1,1.2
				c0.7,0.9,0.9,1.5,0.2,2c-0.8,0.6-1.4,0.2-1.9-0.5L15,37.9c-0.4-0.4-0.4-0.5-0.1-0.8c0.1-0.1,0.1-0.1,0-0.1c0,0-0.1,0-0.2,0
				c-0.2,0.1-0.4,0.3-0.5,0.5c-0.2,0.2-0.4,0.3-0.7,0.5c-0.1,0.1-0.1,0.1-0.1,0.2c0,0,0.1,0,0.1,0c0.3-0.3,0.4-0.2,0.8,0.2l1.1,1.3
				c0.9,1,1.7,1.1,2.7,0.3C19.2,39.2,19,38.2,18.1,37.2z"/>
			<path class="st0" d="M20.7,37.1c0.3,0.5,0.2,0.6-0.1,0.7c-0.1,0-0.1,0.1-0.1,0.1c0,0.1,0.1,0.1,0.2,0c0.3-0.1,0.5-0.3,0.5-0.3
				c0.1-0.1,0.3-0.2,0.7-0.3c0.1,0,0.1-0.1,0.1-0.2c0,0-0.1,0-0.1,0c-0.3,0.2-0.5,0.2-0.8-0.3l-1.2-2.1l4.2,1.2c0.1,0,0.2,0,0.3,0
				c0.1,0,0.1-0.1,0-0.2l-1.7-3.3c-0.2-0.3-0.2-0.5,0.1-0.6c0.1,0,0.1-0.1,0.1-0.1c0-0.1-0.1,0-0.2,0c-0.3,0.1-0.4,0.3-0.5,0.3
				c-0.1,0.1-0.4,0.2-0.6,0.3c-0.1,0.1-0.1,0.1-0.1,0.2c0,0.1,0.1,0,0.1,0c0.3-0.2,0.5-0.2,0.7,0.2l1.3,2.2l-4.2-1.3
				c-0.1,0-0.3-0.1-0.3,0c-0.1,0,0,0.1,0,0.2L20.7,37.1z"/>
			<path class="st0" d="M24.5,31.3c0.3-0.1,0.4,0,0.5,0.2c0.1,0.2,0.1,0.3,0.4,1.2l0.3,1c0.2,0.5,0.3,1,0.4,1.2
				c0.1,0.3,0,0.3-0.2,0.4c-0.1,0-0.1,0.1-0.1,0.1c0,0.1,0.1,0.1,0.2,0c0.2-0.1,0.6-0.2,0.7-0.3c0.1-0.1,0.5-0.2,0.9-0.3
				c0.1,0,0.1-0.1,0.1-0.1c0-0.1-0.1-0.1-0.1,0c-0.3,0.1-0.5,0.1-0.6-0.1c-0.1-0.2-0.3-0.7-0.5-1.2l-0.3-1c-0.3-0.8-0.4-1-0.4-1.2
				c-0.1-0.2,0-0.3,0.2-0.4c0.1,0,0.1-0.1,0.1-0.1c0,0-0.1,0-0.2,0c-0.2,0.1-0.5,0.2-0.7,0.3c-0.2,0.1-0.5,0.2-0.7,0.2
				c-0.1,0-0.2,0.1-0.1,0.1C24.4,31.3,24.5,31.3,24.5,31.3z"/>
			<path class="st0" d="M31.9,29.2c0.1,0,0.1,0,0.1-0.1c0-0.1-0.1-0.1-0.2-0.1c-0.2,0-0.3,0.1-0.5,0.1c-0.2,0-0.3,0-0.6,0.1
				c-0.1,0-0.2,0.1-0.2,0.1c0,0,0.1,0.1,0.1,0c0.2,0,0.3,0,0.3,0c0,0,0,0.1,0,0.2l-0.5,3L29,30.5c-0.1-0.2-0.2-0.3-0.2-0.4
				c0-0.1,0.1-0.2,0.2-0.2c0.1,0,0.1,0,0.1-0.1c0-0.1-0.1-0.1-0.2,0c-0.3,0.1-0.6,0.1-0.7,0.2c-0.2,0-0.5,0.1-0.8,0.2
				c-0.1,0-0.2,0.1-0.2,0.1c0,0.1,0.1,0.1,0.1,0.1c0.4-0.1,0.6,0.1,0.7,0.3l2.3,3.3c0.1,0.1,0.2,0.2,0.2,0.2c0.1,0,0.1-0.1,0.2-0.3
				l0.8-3.8C31.6,29.4,31.7,29.3,31.9,29.2z"/>
			<path class="st0" d="M36.3,32.3c-0.1,0-0.1,0-0.1,0.1c0,0.2-0.1,0.3-0.2,0.4c-0.1,0.1-0.6,0.1-0.7,0.1c-0.4,0-0.5,0-0.5-0.4
				c0-0.2,0-0.7-0.1-1.3c0,0,0,0,0,0c0,0,0.7,0,0.8,0c0.3,0,0.3,0.2,0.4,0.4c0,0,0,0.1,0.1,0.1c0.1,0,0.1-0.1,0.1-0.1
				c0-0.3,0-0.7,0-0.8c0-0.1,0-0.1-0.1-0.1c0,0-0.1,0.1-0.1,0.1c0,0-0.2,0.1-0.5,0.1c-0.2,0-0.5,0-0.6,0c0,0,0,0,0,0l-0.1-1.6
				c0,0,0,0,0,0c1.1-0.1,1.2,0,1.3,0.3c0,0,0,0.1,0.1,0.1c0.1,0,0.1,0,0.1-0.1c0-0.5,0-0.6,0-0.8c0,0,0-0.1-0.1-0.1
				c0,0-0.1,0.1-0.3,0.1c-0.1,0-1.3,0.1-1.5,0.1c-0.2,0-0.5,0-0.9,0c-0.1,0-0.2,0-0.2,0.1c0,0.1,0,0.1,0.1,0.1c0.3,0,0.5,0,0.5,0.3
				c0,0.2,0,0.3,0.1,1.2l0.1,1c0,0.3,0,0.6,0,0.8c0,0.7,0,0.7-0.3,0.7c-0.1,0-0.1,0-0.1,0.1c0,0.1,0,0.1,0.1,0.1
				c0.2,0,0.6-0.1,0.7-0.1c0.6,0,1.2,0,1.8-0.1c0.1,0,0.2-0.1,0.2-0.2c0-0.1,0-0.5,0-0.7C36.4,32.3,36.4,32.3,36.3,32.3z"/>
			<path class="st0" d="M37.7,33.2c0.2,0,0.6,0,0.7,0c0.1,0,0.5,0.1,0.9,0.1c0.1,0,0.1,0,0.1-0.1c0-0.1,0-0.1-0.1-0.1
				c-0.5,0-0.5-0.2-0.5-0.8l0.1-0.9c0,0,0,0,0,0l0.5,0.1c0,0,0.1,0,0.1,0.1c0.2,0.3,0.3,0.6,0.5,0.8c0.4,0.7,0.7,1,1.4,1.1l0.6,0.1
				c0.1,0,0.1,0,0.1-0.1c0-0.1,0-0.1-0.1-0.1c-0.5,0-0.8-0.4-1.9-2.1c0.6-0.4,0.8-0.8,0.9-1.2c0.1-0.8-0.7-1.1-1.4-1.2
				c-0.2,0-0.6,0-0.8-0.1c-0.1,0-0.5-0.1-0.8-0.1c-0.1,0-0.2,0-0.2,0.1c0,0.1,0,0.1,0.1,0.1c0.5,0,0.5,0.1,0.4,0.7l-0.3,2.8
				c-0.1,0.6-0.1,0.7-0.4,0.7c-0.1,0-0.1,0-0.1,0.1C37.5,33.2,37.6,33.2,37.7,33.2z M39.1,29.3c0,0,0-0.1,0.3,0
				c0.5,0,0.8,0.5,0.8,1.1c0,0.5-0.3,0.9-0.8,0.9c-0.3,0-0.5-0.1-0.5-0.2L39.1,29.3z"/>
			<path class="st0" d="M45.2,33.2c0.3-1.3-1.3-1.9-1.1-2.8c0.1-0.3,0.4-0.5,0.8-0.4c0.4,0.1,0.7,0.5,0.6,0.8c0,0.1,0,0.1,0.1,0.2
				c0.1,0,0.1,0,0.1-0.2c0.1-0.4,0.2-0.6,0.2-0.7c0,0,0-0.1-0.1-0.1c-0.1-0.1-0.4-0.2-0.8-0.3c-0.8-0.2-1.5,0.1-1.6,0.8
				c-0.3,1.3,1.3,1.8,1.1,2.8c-0.1,0.3-0.4,0.6-0.9,0.4c-0.6-0.1-0.7-0.6-0.6-1c0-0.1,0-0.1-0.1-0.1c-0.1,0-0.1,0-0.1,0.1l-0.2,0.8
				c0,0.2,0.3,0.4,0.9,0.5C44.2,34.3,45,34,45.2,33.2z"/>
			<path class="st0" d="M47.9,35.3c0-0.1,0-0.1-0.1-0.1c-0.3-0.1-0.4-0.2-0.4-0.4c0.1-0.2,0.2-0.7,0.4-1.2l0.4-1
				c0.3-0.8,0.4-1,0.4-1.1c0.1-0.2,0.2-0.3,0.5-0.2c0.1,0,0.1,0,0.1,0c0,0,0-0.1-0.1-0.1c-0.2-0.1-0.5-0.2-0.7-0.2
				c-0.2-0.1-0.5-0.2-0.7-0.3c-0.1,0-0.2,0-0.2,0c0,0.1,0,0.1,0.1,0.1c0.3,0.1,0.3,0.2,0.2,0.4c-0.1,0.2-0.1,0.3-0.4,1.2l-0.4,1
				c-0.2,0.5-0.4,1-0.5,1.2c-0.1,0.2-0.2,0.2-0.4,0.2c-0.1,0-0.1,0-0.1,0c0,0.1,0,0.1,0.1,0.1c0.2,0.1,0.6,0.2,0.7,0.2
				c0.1,0.1,0.5,0.2,0.8,0.3C47.8,35.4,47.9,35.4,47.9,35.3z"/>
			<path class="st0" d="M49,35.7c0,0,0,0.1,0.1,0.1c0.2,0.1,0.5,0.3,0.7,0.3c0.3,0.1,0.7,0.5,1.1,0.7c1.3,0.7,2.7,0.6,3.4-0.7
				c0.8-1.4,0-2.5-1.5-3.3c-0.3-0.2-0.6-0.3-0.8-0.4c-0.1-0.1-0.5-0.3-0.7-0.4c-0.1-0.1-0.2-0.1-0.2,0c0,0,0,0.1,0.1,0.1
				c0.3,0.2,0.4,0.3,0.2,0.5c-0.1,0.2-0.2,0.3-0.6,1.1l-0.5,0.9c-0.7,1.3-0.8,1.3-1,1.2C49.1,35.7,49,35.7,49,35.7z M50.7,35.4
				L52,33c0.1-0.2,0.1-0.2,0.5,0c1.1,0.6,1.6,1.7,1,2.8C52.8,37,52,37.2,51,36.6C50.3,36.2,50.3,36.1,50.7,35.4z"/>
			<path class="st0" d="M57.2,40.4c0.3-0.9,1.1-3.3,1.2-3.7c0-0.2,0-0.2,0-0.3c0,0-0.1,0-0.3,0.1l-3.5,1.9c-0.4,0.2-0.6,0.2-0.8,0
				c0,0-0.1-0.1-0.1,0c0,0,0,0.1,0.1,0.2c0.2,0.2,0.5,0.4,0.5,0.4c0.1,0.1,0.3,0.3,0.5,0.4c0.1,0,0.1,0.1,0.2,0c0,0,0-0.1-0.1-0.2
				c-0.1-0.1-0.1-0.2-0.1-0.3c0,0,0.2-0.1,0.3-0.2l0.6-0.3c0,0,0,0,0.1,0l1.1,0.9c0,0,0,0,0,0.1l-0.3,1c0,0.1-0.3-0.1-0.3-0.1
				c0,0-0.1,0-0.1,0c0,0,0,0.1,0.1,0.2c0.1,0.1,0.4,0.3,0.5,0.4c0.1,0.1,0.3,0.3,0.4,0.4c0.2,0.2,0.3,0.2,0.3,0.1c0-0.1,0-0.1,0-0.1
				C57,41.1,57.1,40.7,57.2,40.4z M56.8,39l-1-0.8l1.5-0.9c0,0,0,0,0,0l0,0l0,0L56.8,39z"/>
			<path class="st0" d="M59.1,43.7c0.9,1.1,2.3,1.5,3.5,0.5c1.2-1,0.9-2.3-0.2-3.7c-0.2-0.3-0.5-0.5-0.6-0.7
				c-0.1-0.1-0.3-0.4-0.5-0.7c-0.1-0.1-0.1-0.1-0.2-0.1c0,0,0,0.1,0,0.2c0.2,0.2,0.2,0.4,0,0.6c-0.1,0.1-0.3,0.2-0.9,0.8l-0.8,0.7
				c-1.1,0.9-1.2,1-1.4,0.8c-0.1-0.1-0.1-0.1-0.2-0.1c0,0,0,0.1,0,0.2c0.1,0.2,0.4,0.5,0.5,0.6C58.6,42.9,58.9,43.4,59.1,43.7z
				 M59.5,42.3l2.1-1.7c0.1-0.1,0.2-0.1,0.5,0.2c0.8,1,0.8,2.2-0.1,3c-1,0.8-1.8,0.7-2.6-0.2C58.9,42.9,59,42.7,59.5,42.3z"/>
			<path class="st0" d="M64.3,52.2c0.1,0.1,0.1,0.1,0.2,0.1c0.2,0,0.7-0.2,0.8-0.2c0.1,0,0.1-0.1,0.1-0.1c0-0.1-0.1-0.1-0.2,0
				c-0.5,0.1-0.8-0.1-1.1-0.9c-0.4-0.9-0.1-1.9,1.1-2.5c1-0.4,1.9-0.3,2.3,0.7c0.3,0.6,0.3,1.4-0.2,1.6c-0.1,0-0.1,0.1-0.1,0.1
				c0,0.1,0.1,0.1,0.2,0c0.1,0,0.4-0.2,0.6-0.2c0.2-0.1,0.3-0.1,0.3-0.1c0,0,0.1-0.1,0-0.1c-0.1-0.3-0.1-0.8-0.4-1.4
				c-0.6-1.3-1.8-2-3.1-1.5c-1.5,0.7-1.7,2.2-1.1,3.5C63.9,51.6,64.1,52,64.3,52.2z"/>
			<path class="st0" d="M64.7,53C64.7,53,64.7,52.9,64.7,53c-0.2-0.1-0.2,0-0.1,0.1c0.1,0.3,0.2,0.6,0.2,0.7c0,0.2,0.1,0.4,0.1,0.6
				c0,0.1,0,0.1,0.1,0.1c0.1,0,0.1-0.1,0-0.2c0-0.2,0-0.2,0.1-0.3c0.1,0,0.2,0,0.4,0l0.6,0.1c0,0,0,0,0,0l0.3,1.4c0,0,0,0,0,0.1
				l-0.9,0.6c0,0-0.2-0.3-0.2-0.3c0,0,0-0.1-0.1-0.1c-0.1,0-0.1,0.1,0,0.2c0,0.1,0.1,0.5,0.2,0.6c0,0.2,0.1,0.4,0.1,0.6
				c0.1,0.2,0.1,0.3,0.2,0.3c0.1,0,0.1-0.1,0-0.1c-0.1-0.3,0.2-0.5,0.5-0.7c0.8-0.6,2.8-2.1,3.1-2.3c0.1-0.1,0.2-0.2,0.2-0.2
				c0-0.1-0.1-0.1-0.3-0.1l-3.9-0.5C65,53.5,64.8,53.4,64.7,53z M68.3,54.4C68.3,54.4,68.3,54.3,68.3,54.4L68.3,54.4L68.3,54.4
				l-1.5,1l-0.3-1.2L68.3,54.4z"/>
			<path class="st0" d="M69.4,57.5c-0.1,0-0.1,0-0.1,0.1c0,0.1,0,0.1,0.1,0.1c0.2,0,0.4,0.1,0.4,0.6l0.1,0.8L67,59.4
				c-0.9,0.1-1,0-1-0.3c0-0.1,0-0.1-0.1-0.1c-0.1,0-0.1,0-0.1,0.1c0,0.2,0.1,0.6,0.1,0.7c0,0.2,0,0.5,0.1,0.9c0,0.1,0,0.1,0.1,0.1
				c0.1,0,0.1-0.1,0.1-0.1c0-0.5,0-0.5,1-0.6L70,60l0,0.7c0,0.5-0.1,0.7-0.3,0.7c-0.1,0-0.1,0.1-0.1,0.1c0,0,0,0.1,0.1,0.1
				c0.1,0,0.6,0,0.7,0c0.1,0,0.2,0,0.1-0.1c0,0-0.1-0.2-0.1-0.6l-0.2-2.6c0-0.3,0.1-0.5,0.1-0.5c0-0.1,0-0.1-0.1-0.1
				C70.1,57.6,69.6,57.5,69.4,57.5z"/>
			<path class="st0" d="M71.2,66.1c0,0-0.5-0.9-0.7-1.2c0-1.5-1.2-2.2-2.1-2.3c-1-0.1-2.4,0.5-2.5,2.2c-0.1,1.5,0.9,2.5,2.2,2.7
				c1.3,0.1,2.2-0.7,2.4-2.1c0.1,0.5,0.3,1.1,0.3,1.1c0,0.1,0.1,0.1,0.2,0.1c0.1-0.1,0.2-0.1,0.2-0.1C71.2,66.3,71.2,66.2,71.2,66.1
				z M70.2,65.1c-0.1,0.9-0.9,1.6-2.2,1.5c-1.7-0.1-1.8-1.1-1.7-1.5c0.1-1.1,1.1-1.7,2.3-1.6C69.9,63.6,70.2,64.4,70.2,65.1z"/>
			<path class="st0" d="M69.6,69.5c-0.1,0.4-0.2,0.4-0.9,0.2l-2.2-0.6c-0.9-0.2-1-0.3-0.9-0.6c0-0.1,0-0.1,0-0.1
				c-0.1,0-0.1,0-0.1,0.1c-0.1,0.2-0.1,0.6-0.2,0.7c-0.1,0.5-0.2,0.8-0.5,1.7c-0.1,0.3-0.1,0.4,0.1,0.4c0.2,0.1,0.7,0.3,0.7,0.3
				c0.1,0,0.1,0,0.1,0c0-0.1,0-0.1-0.1-0.1c-0.4-0.2-0.5-0.3-0.3-0.9c0.2-0.7,0.3-0.8,1-0.6l2.2,0.6c0.7,0.2,0.7,0.2,0.6,0.6
				c0,0.1,0,0.1,0.1,0.1c0,0,0.1,0,0.1-0.1c0.1-0.2,0.1-0.6,0.2-0.8c0-0.2,0.2-0.5,0.2-0.8c0-0.1,0-0.2,0-0.2
				C69.7,69.4,69.7,69.4,69.6,69.5z"/>
			<path class="st0" d="M68.3,74.1c-0.1,0.3-0.2,0.3-0.4,0.2c-0.2-0.1-0.3-0.1-1.2-0.4l-1-0.4c-0.5-0.2-1-0.4-1.2-0.5
				c-0.2-0.1-0.2-0.2-0.1-0.4c0-0.1,0-0.1,0-0.1c-0.1,0-0.1,0-0.1,0.1c-0.1,0.2-0.2,0.6-0.3,0.7c-0.1,0.1-0.2,0.5-0.4,0.8
				c0,0.1,0,0.2,0,0.2c0.1,0,0.1,0,0.1-0.1c0.1-0.3,0.2-0.4,0.4-0.4c0.2,0.1,0.7,0.2,1.2,0.4l1,0.4c0.8,0.3,1,0.4,1.1,0.5
				c0.2,0.1,0.3,0.2,0.2,0.5c0,0.1,0,0.1,0,0.2c0,0,0.1,0,0.1-0.1c0.1-0.2,0.2-0.5,0.3-0.7c0.1-0.2,0.2-0.5,0.3-0.7
				c0-0.1,0-0.2,0-0.2C68.3,74,68.3,74.1,68.3,74.1z"/>
			<path class="st0" d="M65.2,76.4c-1.4-0.8-2.7-0.1-3.5,1.2c-0.2,0.3-0.4,0.7-0.4,1c0,0.1,0,0.2,0.1,0.2c0.1,0.2,0.5,0.5,0.6,0.5
				c0.1,0,0.1,0,0.1,0c0-0.1,0-0.1-0.1-0.2c-0.4-0.4-0.4-0.7,0-1.4c0.5-0.9,1.5-1.2,2.7-0.6c0.9,0.6,1.3,1.4,0.8,2.3
				c-0.3,0.6-0.9,1.1-1.5,0.8c-0.1-0.1-0.2-0.1-0.2,0c0,0.1,0,0.1,0.1,0.2c0.1,0.1,0.4,0.2,0.5,0.3c0.2,0.1,0.2,0.2,0.3,0.2
				c0,0,0.1,0,0.1-0.1c0.2-0.3,0.5-0.6,0.9-1.2C66.6,78.5,66.5,77.1,65.2,76.4z"/>
			<path class="st0" d="M60.9,80.3c-0.2-0.4-0.2-0.6,0-0.8c0,0,0.1-0.1,0-0.1c0,0-0.1,0-0.2,0.1c-0.2,0.2-0.4,0.5-0.4,0.5
				c-0.1,0.1-0.3,0.3-0.4,0.5c0,0.1-0.1,0.1,0,0.2c0,0,0.1,0,0.2-0.1c0.1-0.1,0.2-0.1,0.3-0.1c0,0,0.1,0.2,0.2,0.3l0.3,0.6
				c0,0,0,0,0,0.1L60,82.4c0,0,0,0-0.1,0l-1-0.3c-0.1,0,0.1-0.3,0.1-0.3c0,0,0-0.1,0-0.1c0,0-0.1,0-0.2,0.1
				c-0.1,0.1-0.3,0.4-0.4,0.5c-0.1,0.1-0.3,0.3-0.4,0.4c-0.2,0.2-0.2,0.3-0.1,0.3c0.1,0,0.1,0,0.1,0c0.2-0.2,0.5-0.1,0.9,0
				c0.9,0.3,3.3,1.1,3.7,1.2c0.2,0,0.2,0,0.3,0c0,0,0-0.1-0.1-0.3L60.9,80.3z M60.3,82.5l0.8-0.9l0.9,1.5c0,0,0,0,0,0l0,0L60.3,82.5
				z"/>
			<path class="st0" d="M21.2,87.4c-0.3-0.2-0.6-0.4-0.8-0.5c-0.1-0.1-0.4-0.3-0.7-0.5c-0.1-0.1-0.2-0.1-0.2,0c0,0,0,0.1,0.1,0.1
				c0.3,0.2,0.3,0.3,0.2,0.5c-0.1,0.2-0.2,0.3-0.6,1.1l-0.5,0.9c-0.8,1.3-0.8,1.3-1.1,1.2c-0.1-0.1-0.2-0.1-0.2,0c0,0,0,0.1,0.1,0.2
				c0.2,0.1,0.5,0.3,0.6,0.4c0.2,0.1,0.7,0.5,1,0.7c1.3,0.8,2.7,0.7,3.5-0.6C23.4,89.5,22.7,88.3,21.2,87.4z M21.8,90.5
				c-0.7,1.1-1.5,1.3-2.5,0.6c-0.6-0.4-0.6-0.5-0.2-1.2l1.4-2.3c0.1-0.2,0.1-0.2,0.5,0C22,88.3,22.4,89.4,21.8,90.5z"/>
			<path class="st0" d="M27.4,90.4c-0.1,0-1.2-0.4-1.4-0.5c-0.2-0.1-0.5-0.2-0.8-0.3c-0.1,0-0.2,0-0.2,0c0,0.1,0,0.1,0.1,0.1
				c0.3,0.1,0.4,0.2,0.3,0.5c-0.1,0.2-0.1,0.3-0.4,1.2l-0.4,1c-0.1,0.3-0.2,0.6-0.3,0.8c-0.2,0.6-0.3,0.7-0.6,0.5
				c-0.1,0-0.1,0-0.1,0c0,0.1,0,0.1,0.1,0.1c0.2,0.1,0.6,0.2,0.7,0.2c0.6,0.2,1.1,0.4,1.7,0.6c0.1,0,0.2,0,0.3-0.1
				c0.1-0.1,0.2-0.5,0.3-0.6c0-0.1,0-0.1,0-0.2c-0.1,0-0.1,0-0.1,0.1c-0.1,0.2-0.2,0.3-0.4,0.3c-0.2,0-0.6-0.1-0.7-0.2
				c-0.4-0.1-0.4-0.2-0.3-0.6c0.1-0.2,0.2-0.6,0.5-1.3c0,0,0,0,0,0c0,0,0.6,0.3,0.7,0.3c0.3,0.1,0.2,0.3,0.2,0.5c0,0,0,0.1,0,0.1
				c0.1,0,0.1,0,0.1-0.1c0.1-0.3,0.3-0.7,0.3-0.7c0-0.1,0-0.1,0-0.1c0,0-0.1,0-0.2,0c-0.1,0-0.2,0-0.5-0.1c-0.2-0.1-0.5-0.2-0.6-0.2
				c0,0,0,0,0-0.1l0.5-1.5c0,0,0,0,0,0c1.1,0.4,1.1,0.4,1,0.8c0,0,0,0.1,0,0.1c0.1,0,0.1,0,0.1-0.1c0.2-0.4,0.3-0.6,0.3-0.7
				c0,0,0-0.1,0-0.1C27.7,90.5,27.6,90.5,27.4,90.4z"/>
			<path class="st0" d="M35.8,92c-0.3-0.1-0.7-0.2-1.4-0.3c-1.4-0.1-2.7,0.5-2.8,1.9c-0.2,1.7,1.1,2.5,2.5,2.7c0.4,0,0.8,0.1,1.1,0
				c0.1,0,0.1-0.1,0.2-0.2c0.1-0.2,0.2-0.7,0.2-0.8c0-0.1,0-0.1-0.1-0.1c-0.1,0-0.1,0-0.1,0.1c-0.2,0.5-0.5,0.6-1.3,0.6
				c-1-0.1-1.7-0.9-1.6-2.2c0.1-1.1,0.7-1.8,1.8-1.7c0.7,0.1,1.4,0.4,1.3,1c0,0.1,0,0.2,0.1,0.2c0.1,0,0.1,0,0.1-0.1
				c0-0.1,0.1-0.4,0.1-0.6c0-0.2,0.1-0.3,0.1-0.3C35.9,92.1,35.8,92,35.8,92z"/>
			<path class="st0" d="M42.9,95.7c-0.3,0-0.5,0-0.5-0.2c-0.1-0.3-0.1-0.7-0.2-1.2l-0.1-1C42,92.3,42,92.2,42,92
				c0-0.3,0.1-0.3,0.3-0.4c0.1,0,0.1,0,0.1-0.1c0-0.1-0.1-0.1-0.2-0.1c-0.2,0-0.6,0.1-0.7,0.1c-0.2,0-0.5,0-0.8,0.1
				c-0.1,0-0.2,0-0.1,0.1c0,0.1,0.1,0.1,0.1,0.1c0.3,0,0.4,0,0.5,0.3c0,0.2,0.1,0.3,0.1,1.2l0,0.3c0,0,0,0,0,0l-2.2,0.2c0,0,0,0,0,0
				l0-0.2c-0.1-0.9-0.1-1-0.1-1.2c0-0.3,0.1-0.3,0.3-0.4c0.1,0,0.1,0,0.1-0.1c0-0.1-0.1-0.1-0.2-0.1c-0.2,0-0.6,0.1-0.7,0.1
				c-0.2,0-0.5,0-0.8,0.1c-0.1,0-0.2,0-0.1,0.1c0,0.1,0.1,0.1,0.1,0.1c0.3,0,0.4,0,0.5,0.3c0,0.2,0,0.3,0.1,1.2l0.1,1
				c0.1,0.5,0.1,1,0.1,1.2c0,0.3,0,0.3-0.3,0.4c-0.1,0-0.1,0-0.1,0.1c0,0.1,0.1,0.1,0.2,0.1c0.2,0,0.6-0.1,0.7-0.1
				c0.2,0,0.5,0,0.9-0.1c0.1,0,0.1,0,0.1-0.1c0-0.1-0.1-0.1-0.1-0.1c-0.3,0-0.5,0-0.5-0.2c-0.1-0.2-0.1-0.7-0.2-1.2l0-0.3
				c0,0,0,0,0,0l2.2-0.2c0,0,0,0,0,0l0,0.4c0.1,0.5,0.1,1,0.1,1.2c0,0.3,0,0.3-0.3,0.4c-0.1,0-0.1,0-0.1,0.1c0,0,0.1,0.1,0.2,0.1
				c0.2,0,0.6-0.1,0.7-0.1c0.2,0,0.5,0,0.9-0.1c0.1,0,0.1-0.1,0.1-0.1C43.1,95.7,43,95.7,42.9,95.7z"/>
			<path class="st0" d="M47.2,94.6c-0.3,0.1-0.5,0.1-0.6-0.1c-0.1-0.2-0.2-0.7-0.4-1.2l-0.3-1c-0.3-0.8-0.3-1-0.3-1.2
				c-0.1-0.3,0-0.3,0.3-0.4c0.1,0,0.1-0.1,0.1-0.1c0,0-0.1-0.1-0.2,0c-0.2,0.1-0.5,0.2-0.7,0.2c-0.2,0-0.5,0.1-0.7,0.2
				c-0.1,0-0.2,0.1-0.1,0.1c0,0.1,0.1,0.1,0.1,0c0.3-0.1,0.4,0,0.5,0.2c0.1,0.2,0.1,0.3,0.4,1.2l0.3,1c0.2,0.5,0.3,1,0.3,1.2
				c0.1,0.3,0,0.3-0.3,0.4c-0.1,0-0.1,0.1-0.1,0.1c0,0.1,0.1,0.1,0.2,0c0.2-0.1,0.6-0.2,0.7-0.2c0.1,0,0.5-0.1,0.9-0.2
				c0.1,0,0.1-0.1,0.1-0.1C47.3,94.5,47.3,94.5,47.2,94.6z"/>
			<path class="st0" d="M52.1,91.7c0-0.1-0.1-0.1-0.1-0.1c-0.1,0,0,0.1,0,0.1c0.1,0.4,0.1,0.6-0.5,0.9c-0.7,0.3-0.8,0.3-1.1-0.5
				l-1-2.1c-0.3-0.7-0.3-0.7,0.1-0.9c0.1,0,0.1-0.1,0.1-0.1c0,0-0.1-0.1-0.2,0c-0.2,0.1-0.6,0.3-0.7,0.3c-0.1,0.1-0.5,0.2-0.7,0.3
				c-0.1,0-0.1,0.1-0.1,0.1c0,0,0.1,0.1,0.2,0c0.4-0.2,0.4-0.1,0.7,0.5l1,2.1c0.4,0.9,0.4,1,0.1,1.1c-0.1,0-0.1,0.1-0.1,0.1
				c0,0,0.1,0.1,0.2,0c0.2-0.1,0.5-0.3,0.7-0.3c0.4-0.2,0.8-0.3,1.6-0.7c0.3-0.1,0.3-0.2,0.3-0.3C52.3,92.3,52.1,91.8,52.1,91.7z"/>
			<path class="st0" d="M56.3,89.2c0-0.1-0.1-0.1-0.1-0.1c-0.1,0,0,0.1,0,0.1c0.1,0.2,0.1,0.3,0,0.5c-0.1,0.1-0.5,0.4-0.6,0.5
				c-0.4,0.2-0.4,0.3-0.6-0.1c-0.1-0.1-0.4-0.6-0.7-1.1c0,0,0,0,0,0c0,0,0.6-0.4,0.7-0.4c0.2-0.2,0.4,0,0.5,0.2c0,0,0.1,0.1,0.1,0
				c0.1,0,0-0.1,0-0.2c-0.2-0.3-0.3-0.6-0.4-0.7c0,0-0.1,0-0.1,0c0,0,0,0.1-0.1,0.2c0,0.1-0.1,0.2-0.4,0.4c-0.2,0.1-0.5,0.3-0.5,0.3
				c0,0,0,0-0.1,0l-0.9-1.3c0,0,0,0,0,0c0.9-0.6,1-0.6,1.2-0.3c0,0,0.1,0.1,0.1,0c0.1,0,0.1-0.1,0-0.1c-0.3-0.4-0.3-0.6-0.4-0.7
				c0,0-0.1-0.1-0.1,0c0,0-0.1,0.1-0.3,0.2c-0.1,0.1-1.1,0.7-1.2,0.8c-0.1,0.1-0.5,0.3-0.7,0.5c-0.1,0.1-0.1,0.1-0.1,0.2
				c0,0,0.1,0,0.2,0c0.3-0.2,0.4-0.2,0.6,0c0.1,0.2,0.2,0.3,0.7,1l0.6,0.9c0.2,0.3,0.3,0.5,0.5,0.7c0.4,0.5,0.4,0.6,0.1,0.8
				c-0.1,0-0.1,0.1-0.1,0.1c0,0,0.1,0,0.2,0c0.2-0.1,0.5-0.4,0.6-0.4c0.5-0.3,1-0.6,1.5-1c0.1-0.1,0.1-0.1,0.1-0.3
				C56.6,89.6,56.4,89.3,56.3,89.2z"/>
		</g>
		<g>
			<path class="st2" d="M20.2,70.2c-0.6,0.4-0.9,1.2-0.9,1.2s0.8,0.2,1.5-0.2c0.6-0.4,0.9-1.2,0.9-1.2S20.8,69.8,20.2,70.2z"/>
			<path class="st2" d="M29,76.2c0.4-0.2,0.7-0.3,1-0.4l0.1-2.1h-1.4l0.1,2.6C28.9,76.2,28.9,76.2,29,76.2z"/>
			<path class="st2" d="M17.6,71.2c0.6,0.4,1.5,0.2,1.5,0.2s-0.2-0.8-0.9-1.2c-0.6-0.4-1.5-0.2-1.5-0.2S17,70.9,17.6,71.2z"/>
			<path class="st2" d="M28.1,69.8c0,0,0,0.5,0,0.6c-0.1,0-0.5,0-0.6,0c0-0.2,0-0.6,0-0.6c0-0.3-0.2-0.5-0.5-0.5h-2.7v0.1
				c0,0.2,0,0.4,0.1,0.7h1.8v0.3h-1.7c0.2,0.5,0.7,0.9,1.4,0.9c0,0,0.5,0,0.7,0c0,0.1,0,0.5,0,0.6c-0.2,0-0.7,0-0.7,0l-0.3,0l-0.5,0
				v1h8.5v-1h-0.3c0,0-0.3,0-0.3,0s-0.5,0-0.7,0c0-0.1,0-0.5,0-0.6c0.2,0,0.7,0,0.7,0c0.7,0,1.2-0.4,1.4-0.9h-1.7v-0.3h1.8
				c0.1-0.2,0.1-0.5,0.1-0.7v-0.1h-2.7c-0.3,0-0.5,0.2-0.5,0.5c0,0,0,0.5,0,0.6c-0.1,0-0.5,0-0.6,0c0-0.2,0-0.6,0-0.6
				c0-0.4,0.2-0.8,0.6-0.9l0.2-0.1l-0.1-0.1c-0.6-0.5-1.4-0.7-2.2-0.7c-0.7,0-1.5,0.2-2.1,0.7l-0.2,0.1l0.2,0.1
				C27.9,69,28.1,69.4,28.1,69.8z"/>
			<path class="st2" d="M20.8,69.6c0.6-0.5,0.6-1.3,0.6-1.3s-0.8-0.1-1.4,0.4c-0.6,0.5-0.6,1.3-0.6,1.3S20.2,70,20.8,69.6z"/>
			<path class="st2" d="M14,69c0,2.1,1.3,3.6,3.5,4c0.9,0.2,1.2,0.4,1.3,0.8h0.9c0-0.1,0-0.2,0-0.3c0-0.3-0.2-0.9-1.3-1.1
				c-1.7-0.4-2.6-1.7-2.6-3.2c0-1.8,1.5-3.3,3.7-3.3c0.9,0,1.7,0.2,2.3,0.6l0.2-0.2c-0.9-0.8-2.1-1.3-3.5-1.3
				C15.8,64.9,14,66.7,14,69z"/>
			<path class="st2" d="M18.6,67.1c-0.4-0.5-1.2-0.6-1.2-0.6s-0.1,0.8,0.4,1.3c0.4,0.5,1.2,0.6,1.2,0.6S19,67.6,18.6,67.1z"/>
			<path class="st2" d="M21,66.5c0,0-0.8,0.1-1.2,0.6c-0.4,0.5-0.4,1.3-0.4,1.3s0.8-0.1,1.2-0.6C21.1,67.3,21,66.5,21,66.5z"/>
			<path class="st2" d="M17,68.2c0,0,0.1,0.8,0.6,1.3C18.2,70,19,70,19,70s-0.1-0.8-0.6-1.3C17.8,68.2,17,68.2,17,68.2z"/>
			<path class="st2" d="M18.5,74.6l-0.4,3.9c0,0.5,0.5,0.9,1.1,0.9c0.6,0,1.1-0.4,1.1-0.9l-0.4-3.9H18.5z"/>
			<path class="st2" d="M33.8,73.5c-0.8,0-1.8,0.4-2.7,2.2c-0.1,0.2-0.3,0.4-0.6,0.6c0,0,0,0,0,0c-0.3,0.2-0.7,0.4-1.2,0.6
				c-0.4,0.2-0.9,0.4-1.4,0.6c-0.5,0.3-0.9,0.8-0.9,1.5c0,0.6,0.3,1,0.8,1.3c0.3-0.2,0.5-0.4,0.8-0.5c-0.4-0.2-0.7-0.5-0.7-0.8
				c0-0.4,0.4-0.7,0.9-1v0c0.3-0.1,0.6-0.3,0.9-0.4c0.4-0.2,0.9-0.4,1.3-0.6c0.4-0.2,0.7-0.5,0.9-0.9c0.3-0.5,0.6-1,0.8-1.2
				c0.3-0.3,0.7,0,1.3,0c0.7,0,1.2-0.4,1.2-0.5c0,0,0-0.2,0-0.2C35.1,74,34.4,73.5,33.8,73.5z M34.1,74.4c-0.1,0-0.2-0.1-0.2-0.2
				c0-0.1,0.1-0.2,0.2-0.2s0.2,0.1,0.2,0.2C34.3,74.3,34.2,74.4,34.1,74.4z"/>
			<circle class="st2" cx="29.4" cy="78.9" r="0.4"/>
			<path class="st2" d="M30.2,78.1c0.4,0.2,0.6,0.5,0.6,0.8c0,0.4-0.4,0.6-0.9,0.9c-0.1,0.1-0.3,0.2-0.4,0.2
				c-0.4,0.2-0.9,0.5-1.3,0.8c0,0,0,0,0,0c-0.4,0.3-0.6,0.7-0.6,1.2c0,0.6,0.3,0.9,0.6,1.1c0.2-0.2,0.4-0.4,0.7-0.6
				c-0.2-0.1-0.4-0.3-0.4-0.6c0-0.2,0.1-0.3,0.3-0.5c0,0,0,0,0,0c0,0,0,0,0,0c0,0,0,0,0.1-0.1c0.4-0.3,0.7-0.4,1.1-0.6
				c0.1-0.1,0.2-0.1,0.4-0.2c0,0,0,0,0,0c0.7-0.4,1.4-0.9,1.4-1.7c0-0.5-0.2-0.9-0.6-1.2C30.9,77.9,30.6,78,30.2,78.1z"/>
			<path class="st2" d="M27.6,76.8c0.3-0.2,0.6-0.3,0.9-0.5c-0.4-0.2-0.7-0.4-0.8-0.7c-0.9-1.8-1.9-2.2-2.7-2.2
				c-0.7,0-1.3,0.5-1.5,0.7c0,0,0,0.2,0,0.2c0,0.1,0.5,0.5,1.2,0.5c0.7,0,1-0.3,1.3,0c0.2,0.2,0.5,0.7,0.8,1.2
				C27,76.4,27.3,76.6,27.6,76.8z M24.6,74.4c-0.1,0-0.2-0.1-0.2-0.2c0-0.1,0.1-0.2,0.2-0.2c0.1,0,0.2,0.1,0.2,0.2
				C24.9,74.3,24.8,74.4,24.6,74.4z"/>
			<path class="st2" d="M30.3,81.4c-0.1,0-0.1,0.1-0.2,0.1c0.2,0.1,0.3,0.3,0.3,0.4c0,0.2-0.1,0.3-0.2,0.4c0,0,0,0,0,0c0,0,0,0,0,0
				c0,0,0,0,0,0c0,0,0,0,0,0c0,0-0.1,0-0.1,0.1c-0.8,0.5-1.2,0.8-1.5,1.3c-0.1,0.2-0.2,0.4-0.2,0.6c0,0.4,0.3,0.8,0.8,0.9l0,0.5
				c0,0.2,0.1,0.3,0.3,0.3c0.2,0,0.3-0.1,0.3-0.3l0-0.5c0.5-0.1,0.8-0.5,0.8-0.9c0-0.1,0-0.2-0.1-0.3c-0.2,0.1-0.3,0.2-0.5,0.3
				c-0.1,0.1-0.4,0.1-0.5,0c-0.1-0.1-0.1-0.4,0-0.5c0.2-0.2,0.4-0.3,0.7-0.4c0.5-0.3,1-0.7,1-1.5c0-0.3-0.1-0.6-0.3-0.8
				C30.7,81.2,30.5,81.3,30.3,81.4z"/>
			<path class="st2" d="M11.3,66.9c-0.1,0.1,0,0.2,0.1,0.3l1.8,1.1l0.1-0.5l-1.7-1C11.5,66.8,11.3,66.8,11.3,66.9z"/>
			<path class="st2" d="M14.1,66.1l0.3-0.3l-1.2-1c-0.1-0.1-0.2-0.1-0.3,0c-0.1,0.1-0.1,0.2,0,0.3L14.1,66.1z"/>
			<path class="st2" d="M15.6,64.7l0.4-0.2l-1-1.2c-0.1-0.1-0.2-0.1-0.3,0c-0.1,0.1-0.1,0.2,0,0.3L15.6,64.7z"/>
			<path class="st2" d="M23.8,63.6c0.1-0.1,0.1-0.2,0-0.3c-0.1-0.1-0.2-0.1-0.3,0l-1.5,1.8l0.4,0.3L23.8,63.6z"/>
			<path class="st2" d="M25.5,64.8c-0.1-0.1-0.2-0.1-0.3,0l-3.1,2.6l0,0.6l3.4-2.8C25.6,65,25.6,64.9,25.5,64.8z"/>
			<path class="st2" d="M27.1,66.9c-0.1-0.1-0.2-0.1-0.3-0.1l-4.4,2.6l0,0.5l4.6-2.7C27.1,67.1,27.2,67,27.1,66.9z"/>
		</g>
		<g>
			<path class="st3" d="M10.5,62h25.8V36.3C22.2,36.5,10.8,47.9,10.5,62z M20.7,47.1c0,0,0.7-0.1,1.3-0.1c0.2,0,0.7,0.1,1,0.3v-3.9
				h4.3v-4.9h4.1c0,0,0,3.8,0,4.9c1.1,0,4.3,0,4.3,0v4.1c0,0-3.1,0-4.3,0c0,1.4,0,13.8,0,13.8h-4.1V47.5h-3.8c0.3,0.2,0.9,0.7,1,0.9
				c0.2-0.1,0.5-0.1,0.6-0.1c0.4,0,0.7,0.3,0.9,0.3c0.2,0,0.3,0,0.3,0.1c0,0.1-0.1,0.2-0.4,0.2c-0.3,0-0.6-0.2-0.8-0.2
				c-0.2,0-0.5,0.1-0.7,0.2l-0.1,0.6h2v1.8c0,1.7-1.2,2.5-2.1,3.2c-0.1,0.1-0.3,0.2-0.5,0.3c0.1,0.1,0.2,0.3,0.2,0.4
				c0.1,0.3,0,0.6-0.1,0.8c-0.1,0.1-0.2,0.2-0.3,0.3c0.2,0.1,0.5,0.5,0.5,0.9c0,0.9-1.1,1.1-1.1,1.1c0,0,0,0.1,0,0.1
				c0.1,0.1,0.2,0.2,0.3,0.2c0.5,0.4,1.5,0.9,1.5,1.9v0.6h-6.3v-0.6c0-0.8,0.8-1.4,1.3-1.7c-0.2-0.1-0.4-0.4-0.4-0.6
				c-0.1-0.3,0-0.6,0.1-0.8c0.1-0.1,0.2-0.2,0.3-0.3c-0.2-0.1-0.5-0.5-0.5-0.7c-2-0.7-4.4-2.1-4.4-5.2c0-2.7,2.1-4.3,4-4.3
				C19.7,46.9,20.7,47.1,20.7,47.1z"/>
			<path class="st3" d="M54.3,72.3l1.5-3.4l-5.1,0l-0.3,4.4c0.2,0,0.3,0,0.4,0.1c0.5,0.1,0.9,0.4,1.3,0.7c0.4,0.3,0.7,0.5,1.3,0.6
				c0.3,0.1,0.5,0.1,0.7,0.1c-0.3-0.5-0.5-1-0.5-1.6v-0.8H54.3z"/>
			<polygon class="st3" points="39.4,72.3 42.2,72.3 40.8,69.2 			"/>
			<path class="st3" d="M41.4,68.9l1.5,3.4h0.7v0.8c0,0.2,0,0.3,0,0.5l0.7-1.1l0.2-0.3l0.3,0.2c0,0,0.4,0.3,1.1,0.4
				c0.3,0.1,0.6,0.1,0.9,0.1l-0.3-4L41.4,68.9z"/>
			<polygon class="st3" points="55,72.3 57.8,72.3 56.4,69.2 			"/>
			<path class="st3" d="M37.2,62.9v25.9C51.4,88.5,62.8,77,63,62.9H37.2z M56.4,75.9c-0.4,0-0.7-0.1-1-0.2l0,0.4l-2.6,6.4l-3-1
				l-0.1,1.4c0,0,0,0,0,0v0c0,0.6-0.5,1.1-1.1,1.1c-0.6,0-1.1-0.5-1.1-1.1l0,0.1l-0.1-2.1C47.1,81,46.8,81,46.5,81
				c-0.3-0.1-0.8-0.4-0.8-0.7l-5.3-1.1l0.2-1.2l0,0l0,0l0,0h0l1.6-2.5c-0.4,0.3-1,0.5-1.5,0.5c-1.6,0-2.8-1.3-2.8-2.8v-0.8h0.7
				l1.5-3.4c-0.8-0.1-1.4-0.8-1.4-1.6c0-0.9,0.7-1.6,1.6-1.6c0.6,0,1.2,0.4,1.4,0.9c2,0.1,3.7-0.2,4.8-0.8c0-0.2-0.1-0.3-0.1-0.5
				c0-1.1,0.9-2,2-2c1.1,0,2,0.9,2,2c0,0.2,0,0.3-0.1,0.5c1.2,0.6,2.8,0.9,4.9,0.8c0.3-0.5,0.8-0.9,1.4-0.9c0.9,0,1.6,0.7,1.6,1.6
				c0,0.8-0.6,1.5-1.4,1.6l1.5,3.4h0.7v0.8C59.2,74.7,57.9,75.9,56.4,75.9z"/>
		</g>
	</g>
</g>
</svg>
